<svg xmlns="http://www.w3.org/2000/svg" version="1.1" xmlns:xlink="http://www.w3.org/1999/xlink" xmlns:svgjs="http://svgjs.dev/svgjs" width="1440" height="1428" preserveAspectRatio="none" viewBox="0 0 1440 1428">
    <g mask="url(&quot;#SvgjsMask1000&quot;)" fill="none">
        <rect width="1440" height="1428" x="0" y="0" fill="rgba(33, 3, 57, 1)"></rect>
        <circle r="12.195" cx="1281.835" cy="603.6550000000001" filter="url(#SvgjsFilter1001)"></circle>
        <circle r="19.435" cx="934.8149999999999" cy="342.295" filter="url(#SvgjsFilter1001)"></circle>
        <circle r="15.27" cx="382.15999999999997" cy="1169.34" filter="url(#SvgjsFilter1001)"></circle>
        <circle r="12.295" cx="801.505" cy="109.605" filter="url(#SvgjsFilter1001)"></circle>
        <circle r="21.955" cx="1072.7549999999999" cy="716.4250000000001" filter="url(#SvgjsFilter1001)"></circle>
        <circle r="22.55" cx="1026.41" cy="540.79" filter="url(#SvgjsFilter1001)"></circle>
        <circle r="22.935" cx="726.285" cy="1041.125" filter="url(#SvgjsFilter1001)"></circle>
        <circle r="15.64" cx="1168.3000000000002" cy="135.6" filter="url(#SvgjsFilter1001)"></circle>
        <circle r="12.305" cx="85.64500000000001" cy="547.635" filter="url(#SvgjsFilter1001)"></circle>
        <circle r="12.935" cx="610.895" cy="610.8149999999999" filter="url(#SvgjsFilter1001)"></circle>
        <circle r="15.955" cx="1452.0249999999999" cy="385.335" filter="url(#SvgjsFilter1001)"></circle>
        <circle r="13.39" cx="710.77" cy="118.63" filter="url(#SvgjsFilter1001)"></circle>
        <circle r="23.635" cx="824.035" cy="1066.675" filter="url(#SvgjsFilter1001)"></circle>
        <circle r="11.93" cx="1440.51" cy="1211.48" filter="url(#SvgjsFilter1001)"></circle>
        <circle r="18.025" cx="777.995" cy="1090.4650000000001" filter="url(#SvgjsFilter1001)"></circle>
        <circle r="21.755" cx="1414.4550000000002" cy="1010.875" filter="url(#SvgjsFilter1001)"></circle>
        <circle r="21.635" cx="705.475" cy="222.86499999999998" filter="url(#SvgjsFilter1001)"></circle>
        <circle r="15.925" cx="1423.695" cy="122.595" filter="url(#SvgjsFilter1001)"></circle>
        <circle r="19.145" cx="535.545" cy="1202.7649999999999" filter="url(#SvgjsFilter1001)"></circle>
        <circle r="12.9" cx="1431.94" cy="628.75" filter="url(#SvgjsFilter1001)"></circle>
        <path d="M854.3 1038L858.2 1057.7 845.3 1053.8C844 1053.3 842.1 1054.1 841.1 1055.8 841 1057.6 841.8 1059.5 843.1 1060L860.1 1065.5 863.6 1083.8 829.3 1072.4C827.1 1071.8 825.2 1072.6 825.1 1074.4 824.1 1076.2 824.9 1078 827.2 1078.6L865 1091.1 868.6 1107.7 839.5 1133.7 825.2 1129.3 817.1 1087.6C816.7 1087.1 816.3 1086.6 815.9 1086.1 815.4 1085.7 814.1 1085.1 813.2 1085.1 810.9 1085.4 809.9 1087.2 810.7 1089L818.1 1127.1 800.8 1121.1 796.4 1101.8C796.9 1101.4 796.4 1100.9 796 1100.4 795.2 1099.5 793.8 1099 792.5 1099.3 791.1 1099.7 790.1 1101.5 790 1103.3L793.6 1118.9 771.8 1111.8C770.5 1111.3 768.6 1112.1 767.6 1113.8 767.5 1115.6 768.3 1117.5 769.7 1118L790.1 1124.6 780.1 1133.6C778.7 1134.8 779 1137.1 779.9 1138.1 781.2 1139.5 783.4 1140.1 784.8 1138.8L797.7 1127.3 815 1133.2 788.3 1157.1C786.9 1158.4 786.8 1160.2 788.1 1161.6 789.4 1163.1 791.2 1163.2 792.6 1161.9L822.2 1135.4 837.3 1139.9 845.2 1178.4 834.2 1188.2 795.5 1175.7C793.7 1174.6 791.4 1175.9 791.3 1177.7 790.3 1179.4 791.5 1180.9 793.3 1181.9L828.5 1193.4 814.6 1205.7 797.3 1199.8C796 1199.2 793.6 1200.5 793.1 1201.8S793.8 1205.5 795.6 1206.5L808.9 1210.8 792.2 1225.8C790.8 1227.1 791.1 1229.3 792.4 1230.8 793.2 1231.7 795.5 1232.3 796.9 1231L813.6 1216.1 816.9 1230.3C817.3 1231.7 818.5 1233.1 820.8 1232.8 822.2 1232.4 823.7 1230.3 823.3 1228.9L819.3 1211 833.2 1198.6 840.7 1234.8C841.5 1236.7 842.7 1238.1 845 1237.8 846.4 1237.4 847.9 1235.2 847.5 1233.8L838.9 1193.5 849.9 1183.7 887.3 1195.7 890 1211.3 860.4 1237.7C859 1239 858.9 1240.8 860.2 1242.3 861.5 1243.7 863.7 1244.3 865.1 1243L891.8 1219.1 895.8 1237 883 1248.5C881.5 1249.8 881.4 1251.6 882.7 1253 884 1254.5 885.8 1254.6 887.2 1253.3L897.2 1244.3 901.5 1265.4C901.9 1266.8 904.1 1268.3 905.4 1267.9 907.3 1267.1 908.7 1265.8 907.9 1264L903.7 1242 918.4 1246.9C920.2 1247 922.1 1246.2 922.6 1244.8 923.1 1243.5 922.7 1242.1 921.9 1241.2 921.9 1241.2 921.5 1240.7 920.6 1240.6L901.9 1234.2 897.9 1216.3 934.9 1227.8C936.6 1228.8 938.5 1228 939.1 1225.8 939.1 1224.9 939.2 1224 938.3 1223 937.9 1222.6 937.5 1222.1 937 1221.6L896.5 1208.9 893.7 1194.3 922.8 1168.2 938.8 1173.7 947 1212.7C947.4 1214.9 949.1 1215.9 951 1215.1 952.8 1215.2 953.8 1213.5 953.5 1211.2L945.9 1175.9 963.7 1181.4 967.3 1198.8C967.7 1200.2 969.4 1201.2 971.2 1201.3 973.1 1200.5 974.5 1199.2 973.7 1197.4L971.3 1184.1 990.5 1190.1C992.2 1191.2 993.6 1189.9 994.6 1188.1 994.7 1187.2 994.3 1185.8 993.5 1184.9 993.5 1184.9 993 1184.4 992.6 1183.9L972.1 1177.3 984.1 1166.7C985 1165.8 985.6 1163.6 984.3 1162.2 983 1160.7 980.7 1161 979.8 1161.9L965 1175.1 947.2 1169.6 976.3 1143.6C977.7 1142.3 977.4 1140 976.1 1138.6S973 1137.1 971.6 1138.3L939.6 1166.9 924.9 1162 917.1 1123.5 929.5 1112.4 968.7 1125.5C970.5 1125.6 972.3 1124.8 973.3 1123 973.4 1122.1 973 1120.7 972.2 1119.8 971.7 1119.3 971.3 1118.8 970.4 1118.8L935.2 1107.3 949.1 1094.9 966.9 1100.4C968.2 1101 970.1 1100.2 971.1 1098.4 971.2 1096.6 970.4 1094.8 969.1 1094.2L954.8 1089.8 970.1 1076.2C971 1075.3 971.2 1072.6 970.3 1071.6 969 1070.2 966.3 1070 965.4 1070.9L950.1 1084.6 947.7 1070.4C947.3 1069.9 946.9 1069.4 946.4 1068.9 945.6 1068 944.3 1067.5 943.4 1067.4 941.5 1068.2 940.5 1070 940.4 1071.8L944.4 1089.7 930.5 1102 923 1065.8C922.7 1063.5 921 1062.5 919.6 1062.9 917.3 1063.2 916.3 1065 916.2 1066.8L924.8 1107.2 912.4 1118.3 875 1106.2 871.8 1091.1 903.7 1062.5C905.2 1061.2 905.3 1059.4 904 1058 902.7 1056.5 900.9 1056.4 899.5 1057.7L870.4 1083.7 866.9 1065.4 881.7 1052.2C882.6 1051.3 882.8 1048.6 881.5 1047.2 880.2 1045.8 877.9 1046.1 877 1046.9L865 1057.6 860.8 1036.5C860.3 1036 860.3 1036 859.9 1035.6 859.1 1034.6 857.7 1034.1 856.8 1034 855 1034.8 854 1036.6 854.3 1038ZM906.7 1123.4L910.7 1125 911.4 1128.6 917.8 1159.8 918.5 1163.5 915.7 1166 892.3 1186.9 889.4 1189.5 885.8 1188.4 855.6 1178.5 852 1177.4 850.9 1173.3 844.9 1142.6 843.8 1138.5 846.6 1135.9 870 1115 872.9 1112.4 876.9 1114 906.7 1123.4Z"></path>
        <path d="M876 796.7L890.7 817.5 889 826.7 884 819.7C883.7 818.8 882.7 818.8 881.8 819.1 881.3 819.6 881 820.8 881.5 821.2L888.2 831.1 886.7 840.1 879.8 834.2 878.8 822.2C878.8 822.2 878.7 821.9 878.7 821.9 878.5 821.3 877.7 821 877 820.9 876.1 821.2 875.6 821.7 875.6 822.7L876.4 831.3 869.4 825.3 866.9 800C866.9 800 867.1 799.6 867.1 799.6 866.9 799 866.1 798.6 865.4 798.5 864.4 798.6 863.7 799.5 864 800.4L866 822.5 857.3 815.5 856.4 805.6C856.4 805.6 856.4 805.6 856.3 805.3 856 804.7 855.5 804.2 854.8 804.1 853.9 804.4 853.1 805.1 853.1 806.1L853.8 812.6 847.5 807.5C846.9 806.7 846 807 845.5 807.5 844.7 808.2 844.7 809.2 845.7 809.8L851.7 815.1 845.3 815.4C844.4 815.8 843.6 816.4 844 817.3 844 818.3 844.5 818.8 845.5 818.8L855.4 817.9 863.8 825 841.4 827.1C840.7 827 840 827.9 840 828.9 840.3 829.5 840.9 830.3 841.9 830.3L867.2 827.8 874.2 833.8 865.6 834.6C864.6 834.6 864.2 835.4 864.3 836.4 864.2 837.1 865.1 837.8 865.8 837.9L877.6 836.6 884.9 842.5 876.2 845.7 865.5 840.7C864.7 840.4 863.8 840.7 863.4 841.5 862.9 842 863.3 843.2 864.2 843.6L872 847.2 863.2 850.4 840.1 839.5C839.3 839.1 838.4 839.4 838 840.2 837.7 841.1 838 842 838.8 842.3L859 852 848.8 855.7 839.8 851.5C839 851.1 838.1 851.5 837.7 852.3 837.3 853.1 837.6 854 838.5 854.4L844.3 857.4 836.8 860.1C835.9 860.4 835.5 861.3 835.9 862.2 836.2 863.1 837 863.4 837.9 863.1L845.4 860.4 842.8 866.1C842.4 866.9 842.7 867.8 843.5 868.2S845.2 868.3 845.6 867.4L849.6 858.8 860.1 855 850.8 875.1C850.4 875.9 850.8 876.8 851.6 877.2 852.4 877.6 853.3 877.2 853.7 876.4L864.3 853.4 873.1 850.2 869.4 858C869.1 858.9 869.4 859.8 870.2 860.2 871 860.5 871.9 860.2 872.3 859.4L877.3 848.7 885.7 845.6 884.1 854.4 874.4 861.3C873.9 861.9 873.6 863 874.2 863.5 874.8 864.3 875.5 864.3 876.4 864L883.4 859.1 881.9 867.8 861.1 882.6C860.3 883.2 860.2 883.9 860.5 884.8 861.1 885.6 862.2 885.6 862.8 885.4L881.2 872.5 879.1 883.5 871.3 889.1C870.4 889.4 870.4 890.4 870.7 891.3 871.2 891.8 872.4 892.1 873.2 891.4L878.3 887.9 877.1 895.8C876.7 896.6 877.4 897.4 878.5 897.7 879.2 897.7 880 897.1 880.1 896.4L881.6 888.4 885.3 893.8C885.9 894.6 886.9 894.6 887.4 894.1 888.3 893.7 888.4 893 888.2 892.4 888.1 892.1 888.1 892.1 887.9 891.8L882.4 884 884.5 873 897.2 891.1C897.6 892 898.6 892 899.5 891.7 900 891.2 900.1 890.5 899.8 889.9 899.7 889.6 899.7 889.6 899.7 889.6L885.1 868.3 886.7 859.6 891.7 866.6C892.3 867.4 893 867.5 893.9 867.2 894.4 866.6 894.8 865.8 894.6 865.2 894.4 864.9 894.4 864.9 894.3 864.6L887.4 854.9 888.9 846.1 895.8 851.8 897 863.6C897.1 864.6 898 865.3 898.7 865.4 899.6 865.1 900.4 864.4 900.1 863.5L899.3 854.9 906.5 860.5 908.7 886.3C908.7 887 909.6 887.6 910.3 887.7 911.2 887.4 912 886.8 912 885.8L910 863.6 918.4 870.8 919.2 880.4C919.2 881.4 920.2 882.1 921.1 881.7 921.8 881.8 922.6 881.2 922.5 880.2L921.8 873.6 928.2 878.8C928.7 879.3 929.7 879.3 930.5 878.6 930.7 878.2 930.8 877.5 930.5 876.9 930.5 876.9 930.4 876.6 930.3 876.3L924 871.1 930.5 870.4C931.3 870.5 931.9 869.6 932 868.9 931.9 868.6 931.9 868.6 931.9 868.6 931.6 867.7 930.8 867.3 930.2 867.5L920.6 868.3 911.9 861.3 934.3 859.2C935.2 858.9 935.7 858.3 935.6 857.3 935.6 857.3 935.5 857 935.5 857 935.3 856.4 934.8 855.9 933.8 856L908.3 858.1 901.5 852.5 910.1 851.7C911 851.4 911.7 850.7 911.4 849.8 911.7 849.7 911.6 849.4 911.6 849.4 911.4 848.8 910.6 848.4 909.9 848.4L898 849.6 891.1 843.6 899.5 840.6 910.2 845.5C911 845.9 912.2 845.5 912.6 844.6 912.7 843.9 912.3 843 911.8 842.5L903.7 839 912.4 835.8 935.4 846.5C936.2 846.9 937.1 846.6 937.5 845.7 937.9 844.9 937.6 844 936.7 843.6L916.6 834.3 927.2 830.4 935.8 834.4C936.6 834.8 937.5 834.5 937.9 833.7S937.9 832 937.1 831.6L931.4 828.9 938.9 826.2C939.8 825.8 940.2 825 939.8 824.1 939.5 823.2 938.7 822.8 937.8 823.1L930.3 825.9 932.8 819.8C933 819.4 933.2 819 933.1 818.7 933 818.4 932.5 817.9 932 817.7 931.2 817.4 930.3 817.7 929.9 818.5L926.1 827.4 915.5 831.3 924.8 810.9C924.9 810.5 925.1 810.1 925 809.8 924.9 809.5 924.4 809 924 808.8 923.2 808.4 922.3 808.7 921.9 809.5L911.3 832.8 902.6 836 906.5 828.1C906.7 827.7 906.5 827.1 906.4 826.8 906.3 826.5 906.2 826.2 905.8 826 904.9 825.6 903.7 826.1 903.7 826.8L898.4 837.6 890 840.6 891.4 831.6 901.3 824.9C901.8 824.4 902.1 823.6 901.9 823 901.8 822.7 901.8 822.7 901.5 822.8 901.2 821.9 900.1 821.6 899.3 822.2L892.2 827.2 893.7 818.2 914.9 803.6C915.4 803 915.5 802.3 915.3 801.7 915.2 801.4 915.2 801.4 915.2 801.4 914.5 800.6 913.7 800.3 912.9 800.9L894.5 813.8 896.6 802.8 904.4 797.2C905.2 796.6 905.3 795.9 905.1 795.3 905.1 795.3 905 795 905 795 904.3 794.2 903.3 794.2 902.7 794.4L897.4 798.4 898.8 790.4C898.7 790.1 898.6 789.8 898.5 789.5 898.4 789.2 897.9 788.7 897.5 788.5 896.5 788.5 895.6 788.8 895.6 789.9L894.1 797.9 890.4 792.4C889.8 791.6 888.8 791.7 888.2 791.9 887.4 792.5 887.4 793.5 887.7 794.4L893.3 802.3 891.5 813.2 878.7 795C878.1 794.2 877 793.9 876.5 794.5 875.7 795.1 875.3 795.9 876 796.7Z"></path>
        <path d="M1284.9 802.5L1336.4 815.1 1360.7 855.7 1313.4 856.5 1275.5 819.3C1275.5 819.3 1275 819 1275 819 1273.8 818.4 1272.1 818.9 1270.9 819.7 1269.4 821.1 1269.6 823.4 1271.3 824.3L1304.6 856.7 1281.6 857.1 1266.8 843C1266.8 843 1266.2 842.7 1266.2 842.7 1265.1 842.1 1263.3 842.6 1262.2 843.4 1260.7 844.7 1260.9 847 1262.5 848L1272.4 857.9 1255.5 858C1254.1 857.9 1252.3 859.8 1252.2 861.3 1251.8 863.3 1254.1 864.5 1255.5 864.6L1272.4 864.4 1262.5 874.3C1261 875.7 1261.2 878 1262.9 878.9 1264.3 880.4 1266.6 880.2 1267.5 878.6L1281.6 863.7 1304.2 863.8 1271.9 897.1C1270.4 898.4 1270.5 900.7 1272.2 901.7 1273.6 903.2 1275.9 903 1276.8 901.3L1314 863.4 1361.3 862.6 1338 904.5 1286.6 919.2C1284.9 919.7 1284 921.4 1284.5 923.1 1285 924.9 1286.6 925.8 1288.4 925.3L1333.6 912.4 1322.4 932.5 1303.3 938C1301.6 938.5 1300.6 940.2 1301.1 941.9 1301.6 943.6 1303.3 944.6 1305 944.1L1318.1 940.3 1309.4 956C1307.9 957.4 1309 959.4 1310.6 960.4 1312.3 961.3 1314.1 960.8 1315 959.1L1323.1 944.6 1326.8 957.6C1327.3 959.4 1329 960.3 1330.7 959.8S1333.4 957.6 1332.9 955.9L1327.4 936.7 1338.6 916.6 1351.5 961.9C1352 963.6 1353.7 964.5 1355.5 964 1357.2 963.5 1358.1 961.9 1357.6 960.1L1343 908.8 1366 867.4 1390.3 908 1377.8 958.1C1377.4 960.1 1378.8 961.6 1380.4 962.5 1382.4 962.9 1383.9 961.6 1384.9 959.9L1396 914.8 1407.7 934.5 1402.6 954.3C1402.2 956.3 1403.6 957.8 1405.2 958.8 1407.2 959.1 1408.7 957.8 1409.4 956.6L1412.5 943 1421.3 957.5C1422.2 958.6 1424.4 959.9 1425.9 958.5 1427.4 957.1 1428.3 955.5 1426.9 954L1418.1 939.6 1431.7 942.7C1433.7 943.1 1435.2 941.7 1435.8 940.6 1435.9 939.2 1435.4 937.4 1434.3 936.8 1434.3 936.8 1433.7 936.5 1433.7 936.5L1413.9 931.3 1402.1 911.6 1447.2 922.8C1449.2 923.1 1450.7 921.8 1451.3 920.7 1451.4 919.2 1450.9 917.5 1449.8 916.9 1449.8 916.9 1449.2 916.6 1449.2 916.6L1397.6 904 1373.3 863.4 1420.6 862.6 1458.5 899.8C1459.9 901.3 1462.2 901.1 1463.1 899.4 1464.6 898 1464.4 895.7 1462.8 894.8L1429.5 862.4 1452.4 862 1467.3 876.1C1468.7 877.6 1471 877.4 1471.9 875.7 1473.4 874.3 1473.2 872 1471.5 871.1L1461.6 861.2 1478.5 861.1C1480 861.2 1481.8 859.2 1481.8 857.8 1481.9 856.4 1481.1 855.2 1480 854.6 1479.4 854.3 1478.9 854 1478 854.2L1461.1 854.3 1471 844.4C1472.5 843.1 1472.3 840.8 1470.6 839.8 1470.6 839.8 1470 839.5 1470 839.5 1468.9 838.9 1467.2 839.4 1466 840.2L1451.9 855.1 1428.9 855.5 1461.3 822.3C1462.8 820.9 1462.6 818.6 1461 817.7 1461 817.7 1460.4 817.3 1460.4 817.3 1459.3 816.7 1457.5 817.2 1456.4 818L1419.2 855.9 1371.9 856.7 1394.9 815.3 1446.2 800.7C1448 800.2 1448.9 798.5 1448.4 796.8 1447.9 795 1446.2 794.1 1444.5 794.6L1399.5 807 1410.7 786.8 1429.9 781.3C1431.6 780.9 1432.6 779.2 1432.1 777.4S1429.9 774.8 1428.1 775.3L1415.1 779 1423.2 764.4C1424.1 762.8 1423.6 761 1421.9 760.1 1420.2 759.2 1418.5 759.7 1417.6 761.3L1409.5 775.9 1405.8 762.8C1405.5 762 1405.3 761.1 1404.1 760.5S1402.2 760.1 1401.3 760.3C1399.5 760.8 1398.6 762.5 1399.1 764.3L1404.6 783.4 1393.4 803.5 1380.5 758.3C1380.2 757.4 1380 756.5 1378.8 755.9 1378.3 755.6 1376.9 755.5 1376 755.8 1374.2 756.3 1373.3 758 1373.8 759.7L1388.5 811.1 1365.5 852.5 1341.2 811.9 1353.7 760.3C1353.8 758.8 1353.3 757.1 1352.2 756.5 1352.2 756.5 1351.6 756.2 1351.6 756.2 1349.6 755.8 1348.1 757.2 1347.5 758.3L1336.4 803.3 1324.6 783.6 1329.8 763.8C1329.9 762.4 1329.4 760.6 1328.2 760 1328.2 760 1327.7 759.7 1327.7 759.7 1325.7 759.3 1324.2 760.7 1323.6 761.8L1320.4 775.4 1311.6 761C1311 760.7 1310.8 759.8 1310.2 759.5 1309.1 758.9 1307.7 758.8 1306.5 759.6 1305 761 1304.1 762.7 1305.4 764.2L1314.3 778.6 1300.6 775.4C1298.7 775.1 1297.2 776.4 1296.5 777.5 1296.2 779.5 1297.5 781 1298.7 781.6L1318.5 786.8 1330.2 806.5 1285.2 795.4C1283.2 795 1281.7 796.4 1281.1 797.5 1281.8 800.1 1282.9 802.2 1284.9 802.5Z"></path>
        <path d="M773.7 670.4L815.2 649.8 827.4 653.5 833.2 681.5 823.6 690.3 777.3 687.4C776.7 687.5 776.7 687.5 776.2 687.6 775.1 687.8 774.1 688.6 773.9 690.4 774.2 692 775 693 776.8 693.2L817.3 695.7 802.4 709.1 784.5 708.2C784.5 708.2 783.9 708.3 783.9 708.3 782.8 708.5 781.8 709.3 781.6 711.1 781.3 712.3 782.7 713.7 784.5 713.9L796.2 714.9 785 724.7C784 725.5 783.8 727.2 784.7 728.7S787.8 729.8 789.3 728.9L799.9 719.3 799.5 730.8C799.2 732.6 800.7 734 802.4 734.2 803.5 734 805.1 733.1 805.3 731.3L806.1 713.4 821.6 699.9 819.2 740.5C819 742.2 820.4 743.6 821.6 743.9 823.3 743.6 824.8 742.7 825 741L827.4 694.7 837.6 685.7 864 694.5 866.7 707.7 841.6 746.7C840.8 748 841.1 749.6 842.4 750.5S845.4 751 846.3 749.7L868.3 715.4 872.5 735.7 863 750.2C862.1 751.6 862.4 753.2 863.9 754.6S866.9 755.1 867.7 753.8L874.1 743.3 877.2 758.1C877.5 759.8 879.4 760.5 881.1 760.2 882.7 759.9 883.6 758.5 883.2 756.9L880.2 742.1 890.1 748.6C891.5 750 893.2 749.7 893.9 747.8 894.8 746.5 894.5 744.8 893.1 744L878.6 734.4 874.3 714.1 908.2 736.8C909.6 737.7 911.7 737.2 912.6 735.9S913.1 732.9 911.8 732.1L872.7 706.4 870 693.3 891.3 674.6 903.6 678.9 924.3 720.3C925.1 721.9 926.9 722.1 928.5 721.7 930.1 720.8 930.3 719.1 929.9 717.4L911.5 681.2 930.6 687.6 938.5 703.6C939.4 705.2 941.2 705.4 942.8 705 943.8 704.3 944.5 702.4 943.7 700.9L938.6 690.5 952.7 695C953.9 695.3 955.5 694.4 956.3 693.1 956.5 691.3 955.7 689.8 954.4 689.5L940.4 685 951.2 679.3C952.2 678.5 952.9 676.6 952.1 675.6 951.8 674 950.6 673.7 948.9 674 948.9 674 948.4 674.1 948.4 674.1L932.3 682.1 913.3 675.7 949.5 657.3C951 656.4 951.9 655.1 951 653.6 950.1 652 948.9 651.7 947.8 652 947.2 652.1 947.2 652.1 947.2 652.1L905.3 673.4 893 669.1 887.2 641.1 896.9 632.8 943.7 635.1C944.9 635.4 946.3 634 946.7 632.7 946.9 631 945.4 629.6 943.7 629.4L903.1 626.9 918.1 613.5 936 614.4C937.7 614.6 939.3 613.7 938.9 612 939.1 610.3 937.7 608.9 936.5 608.5L924.4 608.2 935.5 598.4C936.4 597.1 936.6 595.4 935.7 593.8 935.1 593.4 933.8 593.1 932.7 593.3 932.2 593.4 932.2 593.4 931.8 594.1L920.6 603.8 921 591.7C921.2 590 919.9 589.1 918.7 588.8 918.1 588.9 918.1 588.9 917.6 589 916.5 589.3 915.5 590 915.2 591.2L914.3 609.2 899.4 622.6 901.8 582C901.5 580.4 900.6 578.8 898.9 579.2 898.3 578.7 898.3 578.7 897.7 578.9 896.6 579.1 895.7 580.4 895.4 581.6L893.1 628.4 883.4 636.7 856.5 628 853.8 615.4 879.5 576.4C880.3 575 879.9 572.8 878.5 572S875 571.6 874.2 572.9L852.1 607.2 848 587.5 857.5 572.3C858.3 571 858 569.4 856.7 568.5 855.3 567.6 853.7 568 852.8 569.3L846.3 579.2 843.2 564.4C843 563.3 841.6 561.9 839.9 562.3 838.3 562.6 837 564.6 837.2 565.7L840.3 580.5 830.3 574C829.7 573.5 829 573.1 828.5 573.2 827.4 573.5 826.9 574.1 826.5 574.8 825.6 576.1 826 577.7 827.3 578.6L842 588.7 846.1 608.5 812.2 585.8C811.5 585.3 811 585.4 809.9 585.7 809.4 585.8 808.8 585.9 808.4 586.6 807.5 587.9 808 590.1 809.3 590.9L847.8 616.7 850.4 629.3 829.7 647.9 816.9 644.3 796.2 602.2C795.4 601.3 794.1 600.4 793 600.6 792.4 600.7 792.4 600.7 792.6 601.3 790.9 601.6 790.2 603.5 791 605L809.4 641.2 789.8 635 781.9 618.9C781.1 618 779.9 617.6 778.8 617.9 778.8 617.9 778.3 618 778.3 618 776.6 618.3 775.9 620.2 776.8 621.7L782.5 632.5 768.4 628C767.7 627.6 767.2 627.7 766.6 627.8 765.5 628.1 764.5 628.8 764.6 629.4 763.9 631.3 764.8 632.8 766.1 633.7L780.2 638.2 769.8 643.2C768.3 644.1 767.5 645.9 768.4 647.5 769.2 648.5 771.1 649.2 772 648.4L788.1 640.5 807.2 646.9 771 665.3C769.4 666.1 769.2 667.9 769.6 669.5 770.3 670.5 772.2 671.3 773.7 670.4ZM838.6 676.9L834.1 655.6 833.5 652.3 835.9 650 851.8 635.9 854.7 633.5 857.8 634.6 878.1 641.3 881.2 642.3 881.8 645.6 886.3 667 887 670.3 884.6 672.5 868.6 686.7 866.2 688.9 862.6 688 842.4 681.3 839.3 680.2 838.6 676.9Z"></path>
        <path d="M437.2 378.1L436.5 325 469.8 291.3 482.4 336.9 455.8 382.9C455.8 382.9 455.6 383.5 455.6 383.5 455.3 384.8 456.2 386.4 457.3 387.3 459 388.4 461.2 387.6 461.7 385.8L484.7 345.5 490.9 367.6 480.9 385.5C480.9 385.5 480.8 386.1 480.8 386.1 480.4 387.4 481.3 388.9 482.4 389.9 484.1 391 486.3 390.2 486.8 388.4L493.9 376.3 498.2 392.7C498.5 394.1 500.8 395.4 502.2 395.1 504.3 394.9 504.9 392.4 504.6 391L500.3 374.7 512.3 381.8C514 382.9 516.2 382.2 516.7 380.3 517.8 378.6 517 376.4 515.2 375.9L497.3 366 491.7 344 532 367.1C533.7 368.2 535.9 367.5 536.4 365.6 537.5 363.9 536.7 361.7 534.9 361.2L488.9 334.7 476.3 289.1 522.8 301.2 549.8 347.3C550.7 348.8 552.5 349.3 554.1 348.4 555.7 347.5 556.2 345.6 555.2 344.1L531.4 303.5 553.7 309.3 563.8 326.5C564.7 328 566.6 328.5 568.1 327.6 569.7 326.7 570.2 324.8 569.3 323.3L562.4 311.5 579.7 316.1C581.4 317.2 583.2 315.6 583.6 313.8 584.1 311.9 583.2 310.4 581.4 309.9L565.3 305.7 577 298.8C578.5 297.9 579 296 578.1 294.5S575.3 292.4 573.8 293.3L556.6 303.4 534.3 297.6 574.9 273.8C576.5 272.9 576.9 271 576 269.5 575.1 267.9 573.3 267.4 571.7 268.3L525.6 295.3 479.8 283.4 513.1 249.7 564.8 249.3C566.8 249.2 567.9 247.5 568.4 245.6 568.2 243.6 566.5 242.5 564.7 242L518.3 242.5 534.4 226.2 554.9 226.2C556.9 226.1 558 224.4 558.5 222.6 558.4 220.5 556.7 219.4 555.4 219.1L541.5 219.4 553.2 207.3C554.2 206.2 554.8 203.7 553.1 202.6 551.4 201.5 549.6 201 548.5 202.7L536.7 214.9 536.4 200.9C536.2 198.9 534.6 197.8 533.3 197.5 531.9 197.8 530.4 198.7 530 199.9 530 199.9 529.9 200.5 529.9 200.5L529.8 221 513.7 237.3 513.2 190.9C513.1 188.9 511.4 187.8 510.1 187.4 508.7 187.7 507.2 188.6 506.8 189.9 506.8 189.9 506.7 190.5 506.7 190.5L507.4 243.6 474.1 277.3 461.6 231.6 488.1 185.7C489.2 184 488.5 181.8 486.6 181.3 484.9 180.2 482.7 180.9 482.2 182.8L459.2 223.1 453 201 463 183.1C464.1 181.4 463.3 179.2 461.5 178.7 459.8 177.6 457.6 178.4 457.1 180.2L450 192.2 445.7 175.9C445.4 174.5 443.1 173.2 441.7 173.5 440.3 173.8 439.3 174.9 439 176.1 438.8 176.8 438.7 177.4 439.1 178.2L443.5 194.5 431.4 187.4C429.7 186.3 427.6 187 427.1 188.9 427.1 188.9 426.9 189.5 426.9 189.5 426.6 190.8 427.5 192.3 428.6 193.3L446.5 203.2 452.6 225.3 412.3 202.3C410.6 201.2 408.5 201.9 408 203.8 408 203.8 407.8 204.4 407.8 204.4 407.5 205.6 408.4 207.2 409.5 208.1L455.5 234.7 468 280.3 422.2 268.3 395.2 222.3C394.3 220.7 392.4 220.2 390.9 221.1 389.3 222 388.8 223.9 389.7 225.5L412.9 265.9 390.6 260.1 380.6 242.9C379.6 241.3 377.8 240.9 376.2 241.8S374.2 244.6 375.1 246.1L382 257.8 365.9 253.6C364 253.1 362.4 254.1 362 255.9 361.5 257.8 362.4 259.3 364.2 259.8L380.3 264 368.6 270.9C367.8 271.3 367.1 271.8 366.7 273S366.9 275.1 367.3 275.8C368.3 277.4 370.1 277.9 371.7 277L388.9 266.9 411.1 272.7 370.5 296.5C369.8 297 369 297.4 368.7 298.7 368.5 299.3 368.8 300.7 369.2 301.5 370.2 303 372 303.5 373.6 302.6L419.7 275.6 465.5 287.6 432.2 321.2 379.1 321.9C377.7 322.2 376.2 323.1 375.8 324.4 375.8 324.4 375.7 325 375.7 325 375.8 327 377.5 328.1 378.7 328.4L425.2 328 409 344.3 388.5 344.2C387.1 344.5 385.6 345.4 385.2 346.7 385.2 346.7 385.1 347.3 385.1 347.3 385.2 349.3 386.9 350.4 388.1 350.7L402.1 350.4 390.3 362.5C390.2 363.2 389.4 363.6 389.2 364.2 388.9 365.5 389.2 366.9 390.3 367.8 392 368.9 393.8 369.4 394.9 367.7L406.7 355.6 407 369.5C407.2 371.6 408.9 372.7 410.1 373 412.1 372.9 413.2 371.2 413.6 369.9L413.6 349.4 429.8 333.1 430.2 379.6C430.4 381.6 432 382.7 433.3 383 435.6 381.6 437.4 380.1 437.2 378.1Z"></path>
        <path d="M461.8 940.5L470 961.4 456.6 959.9C455.2 959.6 453.5 960.8 452.8 962.7 453.1 964.5 454.2 966.1 456 965.9L472.7 968.3 479.8 984.3 444.9 979.2C443.1 979.4 441.5 980.6 441.2 982 441 984.3 442.1 985.9 443.9 985.7L482.5 991.2 492.6 1015.9 462.8 1008.4 477.7 1035.2 451.3 1031.8 436.1 995.9C436.5 995.3 436 995 435.5 994.6 434.5 993.8 433.1 993.5 431.8 994.1 430.5 994.8 429.8 996.7 430.1 998.5L443.9 1030.9 426.6 1028.1 420 1012.5C419.9 1011.6 419.4 1011.2 418.9 1010.9 418.4 1010.5 417 1010.2 415.7 1010.8 414.4 1011.4 413.7 1013.4 414.4 1014.6L419.2 1027.2 397 1024.6C395 1024 393.9 1025.5 393.2 1027.4 392.9 1028.8 394.1 1030.5 396.4 1030.7L418.2 1033.8 410 1044.4C408.8 1045.9 409.6 1048.1 410.6 1048.9 412.1 1050.1 413.9 1049.8 415.1 1048.3L425.6 1034.6 442.9 1037.4 421.8 1064.8C420.6 1066.3 420.8 1068.1 422.4 1069.3 423.4 1070.1 425.7 1070.2 426.8 1068.7L450.3 1038.3 476.7 1041.7 455.8 1063.6 486 1064.2 469.6 1085.5 431.5 1080.4C429.2 1080.3 428.1 1081.8 427.8 1083.2 427.5 1084.6 428.7 1086.3 430.6 1086.9L465.3 1091.1 454.8 1104.8 437.7 1102.9C435.7 1102.2 434.1 1103.4 433.9 1105.7 433.6 1107.1 434.8 1108.7 437.1 1108.9L450.1 1110.9 436.4 1128.6C435.2 1130.1 435.5 1131.9 437 1133.1S440.3 1134 441.5 1132.5L455.2 1114.8 460.4 1126.9C461.1 1129.1 463 1129.7 464.3 1129.1 466.5 1128.4 467.2 1126.5 466 1124.8L459.8 1108.7 470.4 1095 483.3 1127.6C484.4 1129.2 486.3 1129.9 487.6 1129.3 489.8 1128.5 490.5 1126.6 489.3 1125L474.7 1089.4 491.1 1068.1 499.4 1097.2 515.3 1071.4 525.3 1096.1 501.9 1126.5C500.7 1128.1 501.4 1130.2 502.4 1131 504 1132.2 505.8 1132 506.9 1130.4L528.4 1102.6 535.1 1119 524.6 1132.7C523.4 1134.2 523.6 1136 525.1 1137.2 526.2 1138 528.5 1138.1 529.6 1136.6L537.8 1126 546.4 1146.3C547.1 1148.5 549 1149.2 550.7 1148 552 1147.4 553.2 1145.9 552.1 1144.2L543.9 1123.4 557.3 1124.8C558.7 1125.1 560.4 1124 560.7 1122.6 560.9 1121.2 560.3 1119.9 559.8 1119.5 559.3 1119.1 558.8 1118.7 557.9 1118.8L541.2 1116.4 534.1 1100.5 569 1105.5C570.8 1105.3 572.4 1104.2 572.7 1102.8 573 1101.4 572.4 1100.1 571.3 1099.3 570.8 1098.9 570.8 1098.9 569.9 1099L531.4 1093.5 521.3 1068.8 551 1076.4 536.2 1049.5 562.6 1053 577.8 1088.9C578.4 1090.2 579.9 1091.3 582.1 1090.6 583.4 1090 584 1088.1 583.8 1086.3L570 1053.8 587.3 1056.6 593.8 1072.2C594.1 1074 596 1074.7 598.2 1073.9 599.5 1073.3 600.1 1071.4 599.9 1069.6L594.7 1057.5 616.9 1060.1C618.8 1060.7 620 1059.2 620.7 1057.3 620.6 1056.4 619.9 1055.1 619.4 1054.7 618.9 1054.3 618.4 1054 617.5 1054.1L595.7 1051 603.9 1040.3C605 1038.8 604.3 1036.6 603.3 1035.8L603.3 1035.8C601.8 1034.7 600 1034.9 598.8 1036.4L588.3 1050.1 571 1047.3 592.1 1019.9C593.3 1018.4 593 1016.6 591.5 1015.5S588.2 1014.5 587 1016L563.6 1046.4 537.1 1043 558 1021.2 527.8 1020.5 544.3 999.2 582.3 1004.3C584.6 1004.5 585.8 1003 586.1 1001.6 586.4 1000.2 585.2 998.5 583.3 997.8L548.9 993.1 559.1 979.9 576.2 981.8C578.1 982.5 579.8 981.4 580 979.1 580.3 977.7 579.1 976 577.2 975.3L563.8 973.9 577.5 956.1C578.6 954.6 578.4 952.8 576.9 951.6S573.6 950.7 572.4 952.2L558.7 970 553.5 957.9C553.4 957 552.9 956.6 552.4 956.2 551.4 955.4 550.5 955.5 549.6 955.6 547.4 956.4 546.7 958.3 547.8 960L554 976 543.5 989.7 530.6 957.2C530.1 956.8 529.6 956.4 529.1 956 528.1 955.2 527.2 955.3 526.3 955.4 524.1 956.2 523.4 958.1 524.5 959.8L539.2 995.3 522.8 1016.6 514.5 987.5 498.6 1013.3 488.6 988.6 512 958.2C513.2 956.7 512.5 954.5 511.4 953.7 509.9 952.5 508.1 952.8 507 954.3L485.9 981.7 478.8 965.7 489.3 952C490.5 950.5 490.3 948.7 488.7 947.5S485.4 946.6 484.3 948.1L476 958.7 467.5 938.4C467.4 937.5 466.9 937.1 466.4 936.7 465.8 936.3 464.4 936.1 463.2 936.7 461.9 937.3 460.7 938.8 461.8 940.5ZM512.3 1002.9L519.1 1026.7 543.8 1027.1 526.5 1045.3 538.4 1066.6 514.4 1061 501.6 1081.8 494.8 1058.1 470.1 1057.6 487 1039.9 475.5 1018.1 499.1 1024.2 512.3 1002.9Z"></path>
        <path d="M1445.5 463.5L1437.8 470 1436.4 463.4C1436.3 462.7 1435.5 462.1 1434.4 462.1 1433.6 462.5 1433 463.3 1433.1 464L1434.9 472.7 1427.7 478.7 1424.3 461C1424 459.9 1423.2 459.3 1422.4 459.7 1421.4 459.6 1420.8 460.4 1421.1 461.6L1424.9 481.1 1418.6 486.7 1400.1 480.4 1398.5 473.1 1414.7 459.4C1414.8 459.1 1414.9 458.8 1415 458.5 1415.1 458.2 1415 457.5 1414.8 457.1 1414.1 456.1 1413.1 456.1 1412.5 456.9L1397.7 469.5 1396.1 460.4 1403.4 453.8C1403.7 453.9 1403.8 453.6 1403.9 453.3 1404.2 452.7 1404.1 452 1403.6 451.5 1403.1 451 1402 451 1401.2 451.4L1395.3 456.8 1393.1 445.5C1393 444.8 1392.2 444.2 1391.2 444.2 1390.4 444.6 1389.7 445.4 1389.8 446.1L1392 456.7 1385.6 454.5C1384.7 454.2 1383.8 454.9 1383.6 455.5 1383.3 456.4 1383.6 457.5 1384.5 457.8L1392.7 460.6 1394.3 469.6 1377.4 463.8C1376.4 463.5 1375.6 463.9 1375.3 464.8 1375 465.7 1375.4 466.6 1376.3 466.9L1395.1 473.3 1396.8 481 1382 493.8 1375 491.4 1371 471.5C1371 470.5 1369.9 469.7 1369.1 470.1 1368.1 470.1 1367.8 471 1367.8 472.1L1371.4 490.2 1362.6 487.2 1360.9 478.2C1360.8 477.5 1359.7 476.8 1359 476.8S1357.6 478 1357.6 479.1L1359 486 1348.4 482.3C1347.5 482 1346.5 482.7 1346.2 483.6 1346 484.2 1346.3 485.3 1347.2 485.7L1357.8 489.3 1352.4 494.2C1351.9 494.7 1351.6 495.6 1352.3 496.5 1352.8 497 1354.1 497.1 1354.6 496.6L1361.4 490.5 1370.2 493.5 1356.3 505.7C1355.7 506.5 1355.3 507.4 1356 508.3 1356.5 508.8 1357.9 508.9 1358.4 508.4L1373.9 494.8 1380.8 497.2 1384.7 516.4 1378.6 521.4 1359.8 515C1358.9 514.7 1358.1 515.1 1357.8 516 1357.5 516.9 1357.8 518 1358.7 518.3L1375.6 524.1 1368.8 530.3 1360.6 527.5C1359.7 527.1 1358.9 527.5 1358.6 528.5 1358.3 529.4 1358.7 530.2 1359.6 530.5L1366 532.7 1357.8 539.7C1357.3 540.2 1357.2 541.5 1357.7 542 1358.5 542.6 1359.4 542.9 1360 542.1L1368.6 534.9 1370 542.5C1370.4 543.3 1371.2 543.9 1371.9 543.8 1372.7 543.7 1373.2 543.2 1373.4 542.6 1373.4 542.6 1373.5 542.3 1373.3 541.9L1371.5 532.2 1378.4 526.1 1382.4 545C1382.4 546.1 1383.2 546.7 1384.3 546.4 1384.7 546.2 1385.1 546 1385.3 545.4 1385.4 545.1 1385.5 544.8 1385.6 544.5L1381.2 523.7 1386.9 518.9 1405.4 525.2 1406.9 533.5 1392 546.6C1391 547.3 1391 548.3 1391.8 549 1392.2 549.8 1393.2 549.8 1394.2 549.1L1407.7 537.1 1409.7 546.3 1402.9 552.1C1402.4 552.6 1402.4 553.6 1402.8 554.4 1403.6 555 1404.5 555.3 1405.2 554.5L1410.3 550.2 1412.4 560.1C1412.4 561.1 1413.3 561.4 1414.3 561.4 1414.7 561.2 1415.2 560.7 1415.4 560.1 1415.4 560.1 1415.5 559.8 1415.6 559.5L1413.5 548.9 1421.1 551.5C1421.7 551.7 1422.8 551.4 1423.1 550.5 1423.4 549.6 1422.7 548.7 1422.1 548.5L1412.7 545.3 1410.8 536.2 1429.2 542.5C1430.1 542.8 1431.1 542.1 1431.4 541.2S1431.3 539.5 1430.4 539.2L1410.1 532.2 1408.6 524.6 1423.5 511.8 1431.4 514.5 1435.3 534.7C1435.7 535.6 1436.5 536.2 1437.5 536.2 1437.9 536 1438.4 535.5 1438.6 534.9 1438.7 534.6 1438.8 534.3 1438.6 533.9L1435 515.7 1443.8 518.7 1445.7 527.8C1445.8 528.6 1446.6 529.2 1447.7 529.2 1448.5 528.8 1449.1 528 1449 527.3L1447.4 520 1457.1 523.3C1457.7 523.5 1458.9 522.9 1459.1 522.3 1459.5 521.4 1458.9 520.2 1458.3 520L1448.6 516.6 1454.2 512.1C1454.3 511.8 1454.4 511.5 1454.5 511.2 1454.7 510.6 1454.6 509.9 1454.4 509.5 1453.6 508.9 1452.6 508.9 1451.8 509.3L1444.9 515.4 1436.2 512.4 1450.1 500.3C1451 499.6 1451 498.5 1450.5 498 1449.8 497.1 1448.8 497.1 1448 497.5L1432.5 511.1 1424.7 508.4 1420.8 489.2 1426.6 484.1 1446.9 491C1447.8 491.3 1448.6 490.9 1448.9 490 1449.2 489.1 1448.8 488.3 1447.9 488L1429.4 481.7 1436.6 475.7 1445.9 478.9C1446.5 479.1 1447.8 478.5 1448.1 477.6 1448.4 476.7 1447.7 475.7 1447.1 475.5L1439.5 472.9 1447.7 465.9C1447.8 465.6 1447.8 465.6 1447.9 465.3 1448.1 464.7 1448 464 1447.8 463.6 1447 463 1446 463 1445.5 463.5ZM1421 507.2L1421.3 509.3 1419.9 510.5 1407.9 521 1406.4 522.2 1404.6 521.5 1389.8 516.5 1388 515.8 1387.6 514 1384.5 498.4 1384.1 496.6 1385.6 495.1 1397.5 485 1399 483.4 1400.9 484.1 1415.7 489.1 1417.5 489.8 1417.8 491.9 1421 507.2Z"></path>
        <path d="M1370.2 219.7L1399.2 247 1400.1 282.5 1368.9 265.5 1358 227.2C1358 227.2 1357.7 226.8 1357.7 226.8 1357.2 226 1355.9 225.7 1354.8 225.8 1353.3 226.1 1352.6 227.7 1353.4 228.9L1363.1 262.3 1347.9 254.1 1343.5 239.4C1343.5 239.4 1343.2 239 1343.2 239 1342.7 238.2 1341.4 237.9 1340.3 238 1338.8 238.3 1338.1 239.9 1338.9 241.1L1341.7 251.2 1330.6 245C1329.7 244.4 1327.8 245 1327.2 245.9 1326.2 247.1 1327.2 248.7 1328.1 249.3L1339.2 255.5 1329.1 258.3C1327.6 258.6 1326.9 260.2 1327.6 261.4 1328 262.9 1329.6 263.6 1330.8 262.9L1345.5 258.4 1360.2 266.9 1326.8 276.6C1325.3 276.9 1324.6 278.5 1325.3 279.7 1325.6 281.2 1327.2 281.9 1328.4 281.2L1366.7 270.2 1397.9 287.2 1367.1 305.9 1328.2 296.5C1326.9 296.2 1325.7 296.9 1325.3 298.2 1325 299.6 1325.8 300.8 1327.1 301.1L1361.4 309.4 1346.6 318.4 1332.1 314.9C1330.8 314.6 1329.6 315.3 1329.3 316.6 1328.9 318 1329.7 319.2 1331 319.5L1340.9 321.9 1329.4 328.9C1328 329.3 1327.9 331 1328.6 332.2 1329.4 333.4 1330.7 333.8 1331.9 333L1342.6 326.5 1340.2 336.4C1339.9 337.7 1340.6 339 1341.9 339.3S1344.5 338.9 1344.8 337.5L1348.3 323 1363.1 314 1354.8 348.3C1354.4 349.6 1355.2 350.9 1356.5 351.2 1357.8 351.5 1359.1 350.8 1359.4 349.4L1368.8 310.5 1399.1 292 1400 327.5 1373.2 355.6C1372.3 356.8 1372.6 358.2 1373.4 359.5 1374.5 360.5 1376 360.1 1377.2 359.4L1401.2 334.1 1401.5 351.3 1390.8 362.3C1389.8 363.5 1390.2 365 1390.9 366.2 1392.1 367.2 1393.6 366.8 1394.4 366.3L1401.5 358.6 1401.9 371.3C1402 372.4 1403 374 1404.5 373.7 1406 373.3 1407.2 372.6 1406.9 371.1L1406.4 358.4 1414.1 365.5C1415.3 366.5 1416.8 366.2 1417.6 365.7 1418.2 364.8 1418.5 363.4 1418 362.6 1418 362.6 1417.7 362.2 1417.7 362.2L1406.7 351.5 1406.4 334.3 1431.6 358.3C1432.8 359.2 1434.3 358.9 1435.1 358.4 1435.7 357.5 1436 356.2 1435.5 355.3 1435.5 355.3 1435.2 354.9 1435.2 354.9L1406.2 327.6 1405.4 292.2 1436.6 309.2 1447.5 347.4C1447.9 348.9 1449.4 349.7 1450.7 348.9 1452.1 348.6 1452.9 347 1452.1 345.8L1442.4 312.3 1457.5 320.5 1462 335.2C1462.4 336.7 1463.9 337.4 1465.1 336.7 1466.6 336.4 1467.4 334.8 1466.6 333.6L1463.8 323.5 1474.9 329.6C1475.8 330.2 1477.7 329.6 1478.3 328.7 1478.8 327.8 1478.7 326.7 1478.2 325.9 1478 325.5 1477.7 325.1 1477.1 324.9L1466 318.7 1476.1 316C1477.6 315.6 1478.3 314.1 1477.6 312.8 1477.6 312.8 1477.3 312.4 1477.3 312.4 1476.8 311.6 1475.5 311.3 1474.4 311.4L1459.7 315.8 1444.6 307.6 1478.1 297.9C1479.5 297.6 1480.3 296 1479.5 294.8 1479.5 294.8 1479.3 294.4 1479.3 294.4 1478.8 293.6 1477.4 293.2 1476.4 293.3L1438.1 304.3 1406.9 287.3 1437.3 268.8 1476.2 278.3C1477.5 278.6 1478.7 277.8 1479.1 276.5 1479.4 275.2 1478.6 274 1477.3 273.6L1443.4 265.1 1458.2 256.1 1472.7 259.6C1474 259.9 1475.2 259.2 1475.6 257.8S1475.1 255.3 1473.8 255L1463.9 252.6 1474.6 246.1C1475.8 245.3 1476.1 244 1475.4 242.8 1474.6 241.6 1473.3 241.2 1472.1 242L1461.4 248.5 1463.8 238.6C1464 237.9 1464.1 237.3 1463.6 236.4S1462.5 235.5 1461.8 235.3C1460.5 235 1459.3 235.7 1458.9 237.1L1455.4 251.6 1440.7 260.6 1449 226.3C1449.2 225.6 1449.3 224.9 1448.8 224.1 1448.6 223.7 1447.7 223.1 1447 223 1445.7 222.7 1444.4 223.4 1444.1 224.7L1434.7 263.6 1404.3 282.1 1403.5 246.7 1430.8 217.7C1431.4 216.7 1431.7 215.4 1431.2 214.6 1431.2 214.6 1431 214.2 1431 214.2 1429.8 213.2 1428.3 213.6 1427.5 214.1L1403.6 239.3 1403.2 222.1 1413.9 211.1C1414.5 210.2 1414.8 208.9 1414.3 208.1 1414.3 208.1 1414 207.6 1414 207.6 1412.9 206.7 1411.4 207 1410.6 207.5L1403.5 215.2 1403.1 202.5C1402.8 202.1 1403 201.5 1402.7 201.1 1402.2 200.2 1401.3 199.7 1400.2 199.8 1398.8 200.1 1397.5 200.8 1397.9 202.3L1398.3 215 1390.6 207.9C1389.4 206.9 1387.9 207.2 1387.1 207.7 1386.1 208.9 1386.5 210.4 1387 211.2L1398 221.9 1398.4 239.1 1373.1 215.2C1371.9 214.2 1370.5 214.5 1369.6 215 1369.2 217 1369.1 218.7 1370.2 219.7Z"></path>
        <path d="M1215.3 409.1L1203.7 460.8 1191.6 468.9 1162.6 453.9 1161.7 439 1197.7 400C1198 399.4 1198 399.4 1198.3 398.9 1198.9 397.7 1198.9 396.3 1197.5 394.8 1195.8 394 1194.4 393.9 1192.9 395.3L1161.5 429.5 1160.4 406.6 1174.1 391.4C1174.1 391.4 1174.4 390.8 1174.4 390.8 1175 389.7 1175 388.2 1173.6 386.8 1172.7 385.6 1170.4 385.9 1169 387.3L1159.7 396.9 1159.1 380C1159.1 378.6 1157.7 377.1 1155.7 376.8S1152.5 378.7 1152.2 380.7L1153.1 397.1 1143.2 388.3C1141.8 386.9 1139.5 387.1 1138.1 388.6 1137.5 389.7 1137.1 391.7 1138.6 393.1L1153.8 406.8 1154.6 430.3 1120.4 398.9C1119 397.4 1116.7 397.7 1115.6 398.5 1114.7 400.2 1114.4 402.2 1115.8 403.7L1155.1 439.2 1155.7 454.6 1128.9 471.7 1115.2 464.7 1098.8 414.3C1098.2 412.6 1096.5 411.7 1094.8 412.3S1092.2 414.5 1092.7 416.2L1107.3 460.5 1086.2 449.6 1080.2 430.7C1079.7 428.9 1078 428.1 1075.7 428.3S1073 430.6 1073.6 432.3L1078.3 445.5 1062.9 437.6C1061.2 436.7 1059.2 437.8 1058.3 439.5 1057.4 441.2 1058 442.9 1059.7 443.8L1075 451.8 1062.1 455.9C1059.8 456.1 1058.9 457.8 1060 459.9 1060.6 461.6 1062.3 462.5 1064 461.9L1083 455.9 1104 466.8 1059.5 480.5C1057.7 481 1056.6 483.3 1057.1 485S1059.4 487.6 1061.1 487.1L1112 470.9 1125.6 478 1126.9 510.3 1114.2 518.2 1062.5 506.6C1060.5 506.2 1059.1 507.7 1058.2 509.4 1057.9 511.4 1059.3 512.8 1061 513.7L1106.4 523.5 1087 535.8 1067 531.2C1065 530.9 1063.6 532.3 1062.7 534 1062.7 535.5 1063.8 537.5 1065.8 537.8L1078.6 540.9 1064.5 550.1C1063.3 550.9 1063 552.9 1063.6 554.7 1065 556.1 1067 556.4 1068.1 555.6L1082.3 546.3 1079.5 560C1079.5 561.5 1080.6 563.5 1082 563.5 1083.7 564.4 1084.9 563.6 1085.8 561.8 1085.8 561.8 1086.1 561.3 1086.1 561.3L1090.7 541.3 1110 529 1100.2 574.4C1099.9 576.4 1100.4 578.1 1102.4 578.4 1104.4 578.7 1105.6 577.9 1106.2 576.7 1106.5 576.2 1106.5 576.2 1106.5 576.2L1117.8 523.7 1130.5 515.8 1159.5 530.8 1159.9 545.4 1124.1 585.3C1122.9 586.1 1123.2 588.4 1124 589.6 1125.4 591 1127.7 590.8 1129.2 589.4L1160.6 555.2 1161.7 578.1 1148 593.4C1146.6 594.8 1146.3 596.8 1148 597.7 1149.4 599.1 1151.7 598.9 1152.8 598L1161.8 587.5 1162.5 604.4C1163 606.2 1164.4 607.6 1166.4 607.9 1167.3 607.7 1168.4 606.8 1169 605.7 1169.3 605.1 1169.3 605.1 1169 604.3L1168.4 587.4 1178.9 596.4C1180.3 597.8 1182 597.3 1183.2 596.4 1183.5 595.9 1183.5 595.9 1183.8 595.3 1184.4 594.2 1184.4 592.7 1183.5 591.6L1168.3 577.9 1167.2 555 1201.4 586.4C1203.1 587.3 1205.1 587.6 1205.9 585.9 1206.8 585.6 1206.8 585.6 1207.1 585 1207.7 583.9 1207.1 582.2 1206.3 581L1166.5 545.2 1166.1 530.6 1193.2 513 1206.3 519.8 1222.5 570.7C1223 572.4 1225.3 573.6 1227 573S1229.9 570.2 1229.4 568.5L1214.8 524.2 1235.3 534.8 1241.9 554.1C1242.4 555.8 1244.1 556.7 1245.9 556.1 1247.6 555.6 1248.5 553.9 1247.9 552.1L1243.8 539.2 1259.2 547.1C1260.3 547.7 1262.6 547.5 1263.5 545.8 1264.4 544.1 1263.5 541.5 1262.4 540.9L1247.1 532.9 1260 528.8C1260.9 528.6 1261.7 528.3 1262 527.7 1262.6 526.6 1262.3 525.7 1262.1 524.9 1261.5 523.1 1259.8 522.2 1258.1 522.8L1238.5 528.5 1218.1 517.9 1262.6 504.3C1263.5 504 1263.8 503.4 1264.4 502.3 1264.7 501.7 1265 501.1 1264.7 500.3 1264.2 498.6 1261.9 497.4 1260.2 497.9L1209.6 513.5 1196.5 506.7 1194.9 475 1207.4 466.3 1259.6 478.2C1261 478.2 1262.7 477.6 1263.3 476.5 1263.6 475.9 1263.6 475.9 1263 475.6 1263.9 473.9 1262.8 471.9 1260.8 471.6L1215.4 461.8 1235.1 448.9 1255.1 453.5C1256.5 453.5 1257.6 452.7 1258.2 451.5 1258.2 451.5 1258.5 451 1258.5 451 1259.4 449.2 1258.3 447.2 1256.3 446.9L1242.6 444.1 1256.8 434.9C1257.6 434.6 1257.9 434.1 1258.2 433.5 1258.8 432.4 1258.8 430.9 1258.2 430.6 1257.1 428.6 1255.1 428.3 1253.4 428.8L1239.3 438.1 1242.3 425.2C1242.6 423.2 1241.5 421.2 1239.5 420.9 1238.1 420.9 1236 422 1236 423.4L1231.4 443.4 1212.1 455.7 1221.9 410.4C1222.2 408.4 1220.8 406.9 1219.1 406 1217.7 406 1215.6 407.1 1215.3 409.1ZM1162.8 461.9L1184.9 473.4 1188.3 475.1 1188.6 478.9 1189.7 503.2 1189.6 507.5 1186.4 509.5 1165.9 522.6 1162.7 524.6 1159.3 522.8 1137.2 511.3 1133.8 509.6 1133.5 505.9 1132.4 481.5 1132.2 477.8 1135.7 475.3 1156.2 462.1 1159.4 460.1 1162.8 461.9Z"></path>
        <path d="M1046.6 985L1086 980.4 1094.8 987 1091.3 1011.2 1081 1015.6 1044.5 999.7C1044 999.6 1044 999.6 1043.5 999.6 1042.6 999.4 1041.5 999.8 1040.9 1001.1 1040.7 1002.5 1041 1003.6 1042.4 1004.2L1074.3 1018 1058.4 1024.5 1044.2 1018.6C1044.2 1018.6 1043.7 1018.5 1043.7 1018.5 1042.8 1018.4 1041.7 1018.7 1041.1 1020 1040.4 1020.9 1041.2 1022.5 1042.6 1023.2L1051.6 1027.4 1039.8 1032C1038.8 1032.3 1038.1 1033.7 1038.4 1035.2S1040.6 1037 1042.1 1036.7L1053.4 1032 1049.7 1041.2C1049 1042.5 1049.7 1044.1 1051.1 1044.8 1052 1044.9 1053.5 1044.6 1054.2 1043.3L1060.1 1029.1 1076.6 1022.7 1062.8 1054.7C1062.1 1056 1062.8 1057.6 1063.7 1058.2 1065.1 1058.4 1066.6 1058.1 1067.3 1056.8L1082.7 1020.2 1093.5 1015.9 1112.3 1030.7 1110.6 1042.1 1079.1 1066.2C1078 1067 1077.8 1068.5 1078.6 1069.5S1080.8 1070.8 1081.9 1070L1109.7 1048.8 1107.2 1066.4 1095.2 1075.3C1094.1 1076.1 1093.9 1077.6 1094.7 1079.1S1096.9 1080.4 1098 1079.6L1106.2 1073 1104.4 1085.8C1104.2 1087.3 1105.5 1088.4 1106.9 1088.6 1108.3 1088.8 1109.4 1088 1109.6 1086.6L1111.4 1073.8 1117.5 1081.9C1118.3 1083.5 1119.7 1083.7 1120.9 1082.4 1122 1081.6 1122.2 1080.2 1121.3 1079.1L1112.4 1067.1 1114.9 1049.5 1135.6 1077.7C1136.4 1078.8 1138.3 1079.1 1139.4 1078.3S1140.7 1076 1139.9 1074.9L1115.9 1042.9 1117.5 1031.5 1140.1 1022.6 1148.8 1029.7 1153.3 1069.1C1153.6 1070.6 1154.9 1071.3 1156.4 1071.5 1157.9 1071.2 1158.5 1069.8 1158.7 1068.4L1154.5 1033.9 1168 1044.5 1169.7 1059.8C1170 1061.3 1171.3 1062 1172.7 1062.2 1173.8 1061.8 1174.9 1060.6 1174.6 1059.1L1173.6 1049.2 1183.7 1057C1184.5 1057.6 1186 1057.3 1187.1 1056.5 1187.8 1055.1 1187.5 1053.6 1186.7 1053L1176.6 1045.3 1187 1043.9C1188 1043.5 1189.2 1042.2 1188.8 1041.2 1189 1039.8 1188.2 1039.2 1186.7 1039 1186.7 1039 1186.3 1038.9 1186.3 1038.9L1171 1040.6 1157.5 1029.9 1192 1025.7C1193.5 1025.4 1194.6 1024.6 1194.3 1023.1 1194.1 1021.6 1193.2 1021 1192.2 1020.8 1191.8 1020.8 1191.8 1020.8 1191.8 1020.8L1151.8 1025.7 1143.1 1018.7 1146.6 994.4 1156.8 990.6 1193.9 1006.1C1194.7 1006.7 1196.3 1005.9 1196.9 1005 1197.6 1003.7 1196.9 1002.1 1195.5 1001.4L1163.5 987.6 1179.5 981.2 1193.7 987.1C1195 987.8 1196.5 987.5 1196.7 986.1 1197.4 984.7 1196.7 983.2 1195.8 982.6L1186.1 978.8 1198 974.1C1199 973.3 1199.7 972 1199.4 970.5 1199 969.9 1198.2 969.3 1197.2 969.2 1196.7 969.1 1196.7 969.1 1196.2 969.5L1184.4 974.1 1188.2 964.5C1188.9 963.1 1188 962.1 1187.2 961.5 1186.7 961.4 1186.7 961.4 1186.2 961.3 1185.3 961.2 1184.2 961.5 1183.6 962.4L1177.7 976.6 1161.8 983 1175.6 951.1C1175.8 949.6 1175.5 948.1 1174.1 947.9 1173.7 947.4 1173.7 947.4 1173.2 947.3 1172.2 947.2 1171.1 948 1170.5 948.9L1155 985.9 1144.8 989.8 1125.6 974.9 1127.2 964 1159.2 940C1160.3 939.2 1160.6 937.3 1159.7 936.2S1157 934.8 1155.9 935.6L1128.2 956.9 1130.6 939.8 1142.6 930.3C1143.7 929.5 1143.9 928.1 1143.1 927 1142.3 925.9 1140.9 925.7 1139.8 926.5L1131.6 932.6 1133.5 919.8C1133.6 918.9 1132.9 917.3 1131.4 917.1 1130 916.9 1128.4 918.1 1128.3 919.1L1126.4 931.9 1120.3 923.8C1119.9 923.2 1119.5 922.7 1119 922.6 1118.1 922.5 1117.5 922.9 1117 923.3 1115.9 924.1 1115.7 925.5 1116.5 926.6L1125.4 939 1122.9 956.1 1102.3 928C1101.8 927.4 1101.4 927.3 1100.4 927.2 1099.9 927.1 1099.5 927.1 1098.9 927.5 1097.8 928.3 1097.6 930.2 1098.4 931.3L1121.9 963.3 1120.4 974.2 1098.2 983.1 1089 976.5 1084.5 936.6C1084.2 935.6 1083.4 934.5 1082.4 934.3 1082 934.3 1082 934.3 1081.9 934.7 1080.5 934.5 1079.3 935.8 1079.6 937.3L1083.8 971.9 1069.9 961.1 1068.2 945.9C1067.8 944.8 1066.9 944.2 1066 944.1 1066 944.1 1065.5 944 1065.5 944 1064.1 943.8 1062.9 945.1 1063.2 946.6L1064.6 957 1054.6 949.3C1054.2 948.7 1053.7 948.6 1053.2 948.6 1052.3 948.4 1051.3 948.8 1051.2 949.3 1050 950.5 1050.3 952 1051.1 953.1L1061.2 960.9 1051.3 961.9C1049.8 962.1 1048.7 963.4 1049 964.9 1049.3 966 1050.6 967.1 1051.6 966.8L1066.9 965.1 1080.4 975.7 1045.8 980C1044.3 980.3 1043.7 981.6 1043.4 983.1 1043.8 984.1 1045.1 985.2 1046.6 985ZM1096.9 1009.1L1099.6 990.6 1100 987.8 1102.6 986.7 1119.5 979.9 1122.6 978.9 1124.8 980.6 1139.2 991.9 1141.3 993.7 1140.9 996.5 1138.3 1015.1 1137.9 1017.9 1135.3 1019 1118.3 1025.8 1115.7 1026.9 1113.1 1025 1098.7 1013.8 1096.5 1012 1096.9 1009.1Z"></path>
    </g>
    <defs>
        <mask id="SvgjsMask1000">
            <rect width="1440" height="1428" fill="#ffffff"></rect>
        </mask>
        <filter id="SvgjsFilter1001">
            <feGaussianBlur stdDeviation="1"></feGaussianBlur>
        </filter>
    </defs>
</svg>