<svg xmlns="http://www.w3.org/2000/svg" version="1.1" xmlns:xlink="http://www.w3.org/1999/xlink" xmlns:svgjs="http://svgjs.dev/svgjs" width="1440" height="560" preserveAspectRatio="none" viewBox="0 0 1440 560"><g mask="url(&quot;#SvgjsMask1008&quot;)" fill="none"><rect width="1440" height="560" x="0" y="0" fill="#0e2a47"></rect><circle r="7.425" cx="854.545" cy="133.155" filter="url(#SvgjsFilter1009)" fill="rgba(51, 121, 194, 0.58)"></circle><circle r="8.105" cx="33.585" cy="155.02499999999998" filter="url(#SvgjsFilter1009)" fill="rgba(51, 121, 194, 0.58)"></circle><circle r="5.945" cx="1309.425" cy="235.20499999999998" filter="url(#SvgjsFilter1009)" fill="rgba(51, 121, 194, 0.58)"></circle><circle r="4.83" cx="444.93" cy="180.5" filter="url(#SvgjsFilter1009)" fill="rgba(51, 121, 194, 0.58)"></circle><circle r="5.905" cx="589.9649999999999" cy="397.515" filter="url(#SvgjsFilter1009)" fill="rgba(51, 121, 194, 0.58)"></circle><circle r="8.13" cx="980.14" cy="459.65" filter="url(#SvgjsFilter1009)" fill="rgba(51, 121, 194, 0.58)"></circle><circle r="5.63" cx="1008.8" cy="534.42" filter="url(#SvgjsFilter1009)" fill="rgba(51, 121, 194, 0.58)"></circle><circle r="8.39" cx="814.5699999999999" cy="67.57" filter="url(#SvgjsFilter1009)" fill="rgba(51, 121, 194, 0.58)"></circle><circle r="4.75" cx="1011.81" cy="192.33" filter="url(#SvgjsFilter1009)" fill="rgba(51, 121, 194, 0.58)"></circle><circle r="9.3" cx="328.41" cy="441.7" filter="url(#SvgjsFilter1009)" fill="rgba(51, 121, 194, 0.58)"></circle><circle r="8.255" cx="542.515" cy="82.60499999999999" filter="url(#SvgjsFilter1009)" fill="rgba(51, 121, 194, 0.58)"></circle><circle r="7.52" cx="1168.28" cy="83.14999999999999" filter="url(#SvgjsFilter1009)" fill="rgba(51, 121, 194, 0.58)"></circle><circle r="7.285" cx="1383.405" cy="272.65500000000003" filter="url(#SvgjsFilter1009)" fill="rgba(51, 121, 194, 0.58)"></circle><circle r="8.56" cx="590.3499999999999" cy="235" filter="url(#SvgjsFilter1009)" fill="rgba(51, 121, 194, 0.58)"></circle><circle r="7.295" cx="369.185" cy="490.71500000000003" filter="url(#SvgjsFilter1009)" fill="rgba(51, 121, 194, 0.58)"></circle><circle r="8.73" cx="166.66" cy="106.7" filter="url(#SvgjsFilter1009)" fill="rgba(51, 121, 194, 0.58)"></circle><circle r="7.05" cx="269.11" cy="115.08" filter="url(#SvgjsFilter1009)" fill="rgba(51, 121, 194, 0.58)"></circle><circle r="7.14" cx="343.78" cy="59.79" filter="url(#SvgjsFilter1009)" fill="rgba(51, 121, 194, 0.58)"></circle><circle r="6.49" cx="116.28" cy="191.3" filter="url(#SvgjsFilter1009)" fill="rgba(51, 121, 194, 0.58)"></circle><circle r="5.63" cx="921.75" cy="74.39" filter="url(#SvgjsFilter1009)" fill="rgba(51, 121, 194, 0.58)"></circle><path d="M995 563.6L1014.7 514.5 1028 508.4 1054.2 527.8 1052.8 542.7 1011 575.5C1010.6 576 1010.6 576 1010.2 576.5 1009.4 577.5 1009.2 578.9 1010.4 580.6 1011.9 581.7 1013.3 582 1015 580.8L1051.4 552.1 1048.9 574.9 1032.9 587.7C1032.9 587.7 1032.5 588.3 1032.5 588.3 1031.8 589.3 1031.5 590.7 1032.7 592.4 1033.3 593.6 1035.6 593.7 1037.3 592.6L1048 584.6 1045.9 601.4C1045.7 602.8 1046.8 604.4 1048.8 605.1S1052.2 603.6 1052.8 601.7L1054.5 585.4 1062.9 595.6C1064.1 597.3 1066.4 597.4 1068 596.2 1068.8 595.2 1069.4 593.3 1068.3 591.6L1055.4 575.7 1058.3 552.4 1087.1 588.8C1088.2 590.5 1090.5 590.6 1091.8 590 1093 588.4 1093.6 586.5 1092.4 584.8L1059.3 543.6 1061.1 528.2 1090.4 515.6 1102.7 524.8 1110.9 577.1C1111.2 578.8 1112.8 580 1114.5 579.7S1117.5 577.9 1117.2 576.1L1109.9 530.1 1128.9 544.2 1131.9 563.9C1132.1 565.7 1133.7 566.8 1136 566.9S1138.9 565.1 1138.6 563.3L1136.1 549.5 1150 559.8C1151.6 561 1153.7 560.2 1154.9 558.6 1156 557.1 1155.7 555.3 1154.2 554.2L1140.3 543.9 1153.8 541.9C1156.1 542 1157.2 540.4 1156.4 538.3 1156.2 536.5 1154.6 535.3 1152.8 535.6L1133.1 538.5 1114.1 524.4 1160.3 518C1162.1 517.8 1163.6 515.7 1163.3 513.9S1161.5 511 1159.7 511.2L1106.9 519.1 1094.6 510 1098.5 477.8 1112.3 472.1 1161.4 491.8C1163.3 492.4 1165 491.2 1166.1 489.7 1166.8 487.8 1165.6 486.1 1164 485L1120.8 468.1 1141.9 459 1160.9 466.7C1162.8 467.3 1164.5 466.2 1165.6 464.6 1165.8 463.2 1165.1 461 1163.1 460.4L1150.9 455.4 1166.4 448.5C1167.7 447.8 1168.3 445.9 1168 444.1 1166.9 442.5 1165 441.8 1163.7 442.5L1148.2 449.4 1153.1 436.3C1153.4 434.9 1152.6 432.7 1151.2 432.4 1149.7 431.3 1148.4 431.9 1147.2 433.5 1147.2 433.5 1146.9 434 1146.9 434L1139.2 453 1118.1 462.1 1135 418.8C1135.6 416.9 1135.4 415.1 1133.4 414.5 1131.5 413.9 1130.2 414.5 1129.5 415.5 1129.1 416.1 1129.1 416.1 1129.1 416.1L1109.5 466.1 1095.7 471.8 1069.5 452.4 1071.5 437.9 1113.2 404.2C1114.4 403.6 1114.5 401.3 1113.9 400 1112.7 398.4 1110.4 398.2 1108.8 399.4L1072.3 428.2 1074.9 405.4 1090.8 392.5C1092.5 391.3 1093.1 389.4 1091.6 388.2 1090.4 386.6 1088.1 386.5 1086.8 387.1L1076.2 396 1078.3 379.2C1078.1 377.4 1076.9 375.8 1075 375.2 1074.1 375.3 1072.8 375.9 1072 377 1071.7 377.5 1071.7 377.5 1071.8 378.4L1069.7 395.1 1060.8 384.6C1059.7 382.9 1057.9 383.2 1056.6 383.8 1056.2 384.3 1056.2 384.3 1055.8 384.9 1055.1 385.9 1054.8 387.3 1055.5 388.6L1068.4 404.5 1065.8 427.3 1037 390.9C1035.5 389.7 1033.6 389.1 1032.4 390.6 1031.5 390.8 1031.5 390.8 1031.2 391.3 1030.4 392.3 1030.7 394.1 1031.3 395.4L1065 437 1063 451.5 1033.4 464.6 1021.5 455.8 1013.7 403C1013.4 401.2 1011.4 399.7 1009.6 400S1006.3 402.3 1006.5 404.1L1013.8 450.1 995.3 436.4 991.9 416.3C991.6 414.5 990.1 413.4 988.3 413.7 986.5 413.9 985.3 415.5 985.6 417.3L987.6 430.7 973.7 420.4C972.7 419.6 970.4 419.5 969.2 421.1 968.1 422.6 968.5 425.3 969.5 426.1L983.4 436.4 970 438.3C969.1 438.5 968.2 438.6 967.8 439.1 967.1 440.2 967.2 441.1 967.3 441.9 967.6 443.7 969.1 444.9 970.9 444.6L991.1 442.1 1009.6 455.8 963.5 462.2C962.6 462.3 962.2 462.8 961.4 463.9 961 464.4 960.7 464.9 960.8 465.8 961.1 467.6 963.1 469.1 964.9 468.8L1017.4 461.5 1029.2 470.3 1025.6 501.9 1012 508.5 962.3 488.4C960.9 488.2 959.1 488.5 958.4 489.5 958 490 958 490 958.5 490.4 957.4 491.9 958.1 494.1 960.1 494.7L1003.3 511.6 981.9 521.2 962.9 513.5C961.5 513.3 960.2 513.9 959.4 515 959.4 515 959 515.5 959 515.5 957.9 517 958.7 519.2 960.6 519.8L973.7 524.7 958.2 531.6C957.3 531.7 957 532.2 956.6 532.8 955.8 533.8 955.6 535.2 956.1 535.6 956.9 537.8 958.8 538.4 960.6 538.1L976 531.2 971 543.4C970.3 545.4 971.1 547.5 973 548.2 974.5 548.4 976.6 547.6 976.9 546.2L984.6 527.2 1005.6 518.1 988.7 561.4C988.1 563.3 989.3 565 990.8 566.1 992.2 566.3 994.4 565.6 995 563.6ZM1055.3 519.9L1035.3 505 1032.2 502.8 1032.5 499 1035.3 474.8 1036.1 470.6 1039.5 469.2 1061.9 459.5 1065.3 458 1068.4 460.3 1088.5 475.2 1091.6 477.5 1091.2 481.2 1088.4 505.4 1088 509.1 1084.2 511 1061.9 520.8 1058.4 522.2 1055.3 519.9Z" fill="rgba(51, 121, 194, 0.58)"></path><path d="M407.6 409.5L356.5 408.1 344 394.3 361.2 394.8C363 395.4 364.2 393.7 364.8 391.9 364.5 390.5 363 388.7 361.6 389L337.9 387.8 325.2 374.6 343.1 370.7 363.3 383.4C363.3 383.4 363.9 383.6 363.9 383.6 365.1 384 366.7 383.1 367.7 382.1 368.3 380.3 368 378.9 366.4 377.7L351.7 368.6 369.6 364.6 413.1 391.1C413.1 391.1 413.5 391.9 413.5 391.9 414.8 392.3 416.4 391.4 417.4 390.4 418.5 388.7 417.8 386.5 416 386L378.3 362.6 400 357.1 416.9 367.5C416.9 367.5 416.9 367.5 417.5 367.7 418.7 368.1 420.1 367.8 421.1 366.8 421.7 364.9 421.6 362.9 420 361.7L408.6 355 424.5 351.1C426.5 351 427.1 349.2 426.8 347.8 426.8 345.7 425.1 344.6 422.9 345.3L407.2 348.5 414.4 338C415 336.2 414.9 334.2 413.1 333.6 411.4 332.4 410 332.7 408.8 334.3L398.4 351.2 376.9 356.1 400.4 317.8C401.4 316.7 400.8 314.5 399.1 313.4 397.9 313 395.9 313 394.7 314.7L368.2 358.2 350.3 362.2 359.4 347.5C360.6 345.9 359.7 344.3 358.1 343.1 357 342.1 354.8 342.8 353.8 343.8L341.7 364.2 323.6 368.8 328.9 351 349.7 339.9C351.3 339 351.8 337.2 351 335.6 350.7 334.2 348.3 333.5 346.7 334.3L331.5 342.5 336.9 324.7 382.1 300.9C383.7 300 384.3 298.2 383.4 296.6 382.6 295 380.7 294.5 379.1 295.3L339.5 316.1 345.7 295.3 363.3 285.9C364.9 285 365.4 283.2 364.6 281.6 363.7 280 361.9 279.4 360.3 280.3L348.5 286.1 353.1 270.8C353.7 268.9 352.8 267.3 351 266.8 349.1 266.2 347.5 267.1 347 268.9L342.4 284.2 336.4 273.1C335.5 271.5 333.7 270.9 332.1 271.8S329.9 274.5 330.8 276.1L339.8 292.8 333.3 314.3 312.3 275.2C311.5 273.6 309.6 273 308.1 273.9 306.5 274.8 305.9 276.6 306.8 278.2L330.7 322.8 325.4 340.6 317.3 325.5C316.4 323.9 314.6 323.3 313 324.2 311.4 325 310.8 326.9 311.7 328.5L322.8 349.2 317.6 366.4 305.5 353.3 306 329.4C305.8 328 304.3 326.2 302.9 326.5 300.9 326.6 299.9 327.6 299.3 329.4L298.8 346.7 286.7 333.6 288.1 282.6C288 280.6 287 279.6 285.1 279 283.1 279.1 281.9 280.7 281.6 282L280 327 265 310.4 265.4 291.1C266 289.3 264.3 288.1 262.5 287.6 261.1 287.8 259.3 289.3 259.4 291.3L258.9 303.9 247.7 292.5C246.8 290.9 244.8 290.9 243 292.4 242 293.4 242.1 295.5 243.1 296.5L254.2 308.5 241 307.9C239 307.9 237.8 309.6 238.1 311 237.5 312.8 238.6 313.8 239.8 314.2 240.4 314.4 240.4 314.4 241 314.5L260.3 315 275.3 331.6 230.9 330.2C229.1 329.7 227.9 331.3 227.4 333.2 227.6 334.6 228.7 335.5 229.9 335.9 230.5 336.1 230.5 336.1 230.5 336.1L282 338.2 294.1 351.2 276.9 350.7C274.9 350.8 273.9 351.8 273.3 353.7 273.6 355.1 274.4 356.7 275.7 357.1 276.3 357.2 276.3 357.2 276.9 357.4L300.8 357.9 312.9 370.9 295.6 375.1 275.2 362.9C273.6 361.8 271.4 362.4 270.4 363.5 269.8 365.3 269.9 367.3 271.7 367.9L286.4 377 268.9 381.8 225 354.5C223.9 353.5 221.7 354.2 220.7 355.2 220.2 357.1 220.2 359.1 221.9 360.2L259.6 383.6 238.1 388.5 221.8 378.3C220.2 377.1 218 377.8 217.4 379.6 216.4 380.7 216.5 382.7 218.1 383.8L229.5 390.6 213.6 394.5C212.2 394.7 211 396.4 211.1 398.4 211.5 399.2 212.5 400.2 213.8 400.6 213.8 400.6 214.4 400.8 215 400.9L230.9 397 224.1 408.4C223.1 409.4 223.8 411.6 224.8 412.6 225.5 412.8 225.5 412.8 225.5 412.8 227.3 413.3 228.9 412.5 229.3 411.3L239.5 395 261.2 389.5 237.6 427.8C237.1 429.7 237.3 431.1 239 432.2 239 432.2 239.6 432.4 239.6 432.4 240.8 432.8 242.2 432.5 243.4 430.9L270.5 387.6 287.8 383.4 278.7 398.1C278.1 399.9 278.2 401.9 280 402.5 279.8 403.1 280.5 403.3 280.5 403.3 281.7 403.6 283.3 402.8 284.3 401.8L296.4 381.4 314.3 377.4 309.2 394.5 288.4 405.7C286.8 406.5 286.1 409 286.9 410.6 288 411.6 289.8 412.1 291.2 411.9L306.6 403.1 301.2 420.9 256.6 444.9C255 445.7 254.4 447.6 255.3 449.2 256.1 450.8 258 451.3 259.6 450.5L298.6 429.5 292.2 450.9 275.4 459.9C273.8 460.8 273.3 462.6 274.1 464.2S276.8 466.4 278.4 465.5L289.6 459.5 285 474.8C284.4 476.7 285.3 478.3 287.1 478.8 289 479.4 290.5 478.5 291.1 476.7L295.7 461.3 302.3 472.7C302.8 473.5 303.2 474.3 303.8 474.5 304.4 474.7 305.8 474.4 306.6 474 308.2 473.1 308.8 471.3 307.9 469.7L298.3 452.8 304.8 431.3 326.4 470.6C326.8 471.4 327.2 472.2 327.8 472.4 328.4 472.5 329.8 472.3 330.6 471.9 332.2 471 332.8 469.2 331.9 467.6L307.3 422.7 312.7 405 320.6 420.7C321.1 421.5 322.3 421.9 322.9 422.1 323.5 422.3 324.1 422.5 324.9 422 326.5 421.2 327.3 418.7 326.2 417.7L315.3 396.4 320.4 379.2 333.2 392.4 332.1 416.1C332.3 417.6 333.2 419.2 334.4 419.5 335 419.7 335 419.7 335.2 419.1 337 419.6 338.8 418.2 338.7 416.2L339.2 398.9 352 412.1 349.8 463.6C350.1 465 351.1 466 352.4 466.4 353 466.6 353 466.6 353 466.6 355 466.5 356.6 465.6 356.5 463.6L358 418.6 373.1 435.2 372.7 454.4C372.7 456.5 373.8 457.4 375 457.8 375 457.8 375.6 458 375.6 458 377.6 457.9 378.8 456.3 379.2 455.1L379.2 441.7 390.2 453.7C390.9 453.9 391.5 454.1 392.1 454.3 392.7 454.5 394.1 454.2 394.9 453.8 396.1 452.1 396.6 450.3 395 449.1L383.9 437.1 397.1 437.7C399.1 437.7 400.3 436 400.6 434.8 400.6 432.8 398.9 431.6 397.1 431L377.8 430.6 362.6 414.6 407 416C409 415.9 410.8 414.5 410.5 413 410.5 411 409.6 409.4 407.6 409.5Z" fill="rgba(51, 121, 194, 0.58)"></path><path d="M1470.1 494.6L1419.2 490.8 1407.3 476.4 1424.5 477.8C1426.3 478.4 1427.6 476.8 1428.2 475 1428 473.6 1426.7 471.7 1425.2 471.9L1401.6 469.6 1389.5 455.8 1407.6 452.7 1427.2 466.5C1427.2 466.5 1427.8 466.7 1427.8 466.7 1429 467.1 1430.6 466.3 1431.6 465.3 1432.3 463.5 1432.1 462.1 1430.5 460.9L1416.3 451.1 1434.4 448 1476.6 476.5C1476.6 476.5 1477 477.3 1477 477.3 1478.2 477.8 1479.8 477 1480.8 476 1482.1 474.4 1481.5 472.2 1479.7 471.5L1443.1 446.3 1465.1 441.9 1481.5 453.1C1481.5 453.1 1481.5 453.1 1482.1 453.4 1483.3 453.8 1484.7 453.6 1485.7 452.6 1486.4 450.8 1486.4 448.8 1484.8 447.5L1473.8 440.2 1489.9 437.1C1491.9 437.1 1492.5 435.3 1492.4 433.9 1492.4 431.9 1490.8 430.6 1488.6 431.2L1472.7 433.7 1480.4 423.6C1481.1 421.8 1481.1 419.7 1479.3 419.1 1477.7 417.8 1476.3 418 1475 419.6L1463.8 436 1442 439.8 1467.5 402.7C1468.5 401.7 1467.9 399.4 1466.3 398.2 1465.1 397.8 1463.1 397.7 1461.8 399.3L1433.3 441.5 1415.2 444.6 1425 430.4C1426.3 428.8 1425.5 427.2 1423.9 425.9 1422.9 424.9 1420.7 425.5 1419.6 426.5L1406.5 446.2 1388.2 449.9 1394.4 432.4 1415.7 422.3C1417.3 421.5 1417.9 419.7 1417.2 418.1 1417 416.7 1414.6 415.8 1412.9 416.6L1397.4 424 1403.6 406.5 1450 384.9C1451.6 384.1 1452.3 382.3 1451.5 380.7 1450.7 379.1 1448.9 378.4 1447.3 379.2L1406.6 398.1 1413.9 377.6 1431.9 369C1433.5 368.2 1434.1 366.4 1433.4 364.8 1432.6 363.1 1430.8 362.5 1429.1 363.3L1417.1 368.5 1422.4 353.4C1423.1 351.6 1422.3 350 1420.5 349.3 1418.7 348.7 1417.1 349.5 1416.4 351.3L1411.1 366.4 1405.6 354.9C1404.8 353.3 1403 352.7 1401.4 353.4S1399.1 356 1399.9 357.7L1408.1 374.8 1400.6 395.9 1381.5 355.9C1380.7 354.3 1378.9 353.6 1377.3 354.4 1375.7 355.2 1375 357 1375.8 358.6L1397.6 404.4 1391.4 421.9 1384 406.3C1383.2 404.7 1381.4 404.1 1379.8 404.8 1378.1 405.6 1377.5 407.4 1378.3 409.1L1388.4 430.3 1382.4 447.2 1370.9 433.6 1372.6 409.8C1372.4 408.3 1371 406.5 1369.6 406.7 1367.6 406.6 1366.6 407.6 1365.9 409.4L1364.6 426.6 1353.1 413 1356.9 362.1C1356.9 360.1 1355.9 359 1354.1 358.4 1352.1 358.4 1350.9 360 1350.4 361.2L1346.7 406 1332.5 388.8 1333.9 369.6C1334.5 367.7 1332.9 366.5 1331.1 365.9 1329.7 366 1327.8 367.4 1327.8 369.4L1326.8 382 1316.1 370C1315.3 368.4 1313.3 368.3 1311.4 369.7 1310.4 370.7 1310.3 372.7 1311.3 373.8L1321.8 386.3 1308.7 385.1C1306.7 385 1305.4 386.6 1305.6 388 1304.9 389.8 1305.9 390.9 1307.1 391.3 1307.8 391.5 1307.8 391.5 1308.4 391.7L1327.6 393.1 1341.8 410.4 1297.5 406.9C1295.7 406.3 1294.5 407.9 1293.8 409.7 1294 411.1 1295 412.1 1296.2 412.6 1296.8 412.8 1296.8 412.8 1296.8 412.8L1348.1 417.4 1359.6 431 1342.4 429.6C1340.4 429.6 1339.4 430.6 1338.7 432.4 1338.9 433.8 1339.7 435.5 1340.9 435.9 1341.5 436.1 1341.5 436.1 1342.1 436.3L1366 438 1377.5 451.6 1360 454.9 1340.2 441.7C1338.6 440.5 1336.4 441.1 1335.3 442 1334.7 443.9 1334.6 445.9 1336.5 446.5L1350.6 456.3 1333 460.2 1290.4 430.9C1289.4 429.8 1287.2 430.4 1286.1 431.4 1285.5 433.2 1285.5 435.2 1287.1 436.5L1323.6 461.7 1301.9 465.5 1286.1 454.5C1284.5 453.2 1282.3 453.8 1281.6 455.6 1280.6 456.6 1280.6 458.6 1282.2 459.9L1293.1 467.2 1277.1 470.3C1275.7 470.5 1274.4 472.1 1274.4 474.1 1274.8 474.9 1275.8 475.9 1277 476.4 1277 476.4 1277.6 476.6 1278.2 476.8L1294.2 473.6 1286.9 484.6C1285.9 485.6 1286.5 487.9 1287.5 488.9 1288.1 489.1 1288.1 489.1 1288.1 489.1 1289.9 489.8 1291.5 489 1291.9 487.8L1303 472 1324.9 467.6 1299.5 504.7C1298.9 506.5 1299 507.9 1300.6 509.2 1300.6 509.2 1301.2 509.4 1301.2 509.4 1302.5 509.8 1303.9 509.7 1305.1 508.1L1334.3 466.1 1351.7 462.8 1341.9 477C1341.3 478.8 1341.3 480.8 1343.1 481.5 1342.9 482.1 1343.5 482.3 1343.5 482.3 1344.7 482.7 1346.3 481.9 1347.3 480.9L1360.5 461.1 1378.5 458.1 1372.6 474.9 1351.3 485.1C1349.7 485.8 1348.8 488.3 1349.6 489.9 1350.6 490.9 1352.4 491.6 1353.8 491.4L1369.6 483.4 1363.4 500.9 1317.6 522.7C1316 523.5 1315.3 525.3 1316.1 526.9 1316.9 528.5 1318.7 529.2 1320.3 528.4L1360.4 509.3 1352.9 530.4 1335.7 538.6C1334.1 539.4 1333.4 541.2 1334.2 542.8S1336.8 545.1 1338.4 544.3L1349.9 538.9 1344.5 554C1343.9 555.8 1344.7 557.4 1346.5 558 1348.3 558.7 1349.9 557.9 1350.6 556.1L1355.9 541 1362 552.7C1362.3 553.5 1362.7 554.3 1363.3 554.5 1363.9 554.7 1365.4 554.6 1366.2 554.2 1367.8 553.4 1368.5 551.6 1367.7 549.9L1358.9 532.6 1366.4 511.5 1386.1 551.7C1386.5 552.5 1386.8 553.4 1387.4 553.6 1388 553.8 1389.5 553.6 1390.3 553.2 1391.9 552.4 1392.6 550.6 1391.8 549L1369.4 503 1375.6 485.5 1382.8 501.7C1383.2 502.5 1384.4 502.9 1385 503.1 1385.6 503.3 1386.2 503.5 1387 503.2 1388.6 502.4 1389.5 500 1388.5 498.9L1378.6 477.1 1384.6 460.2 1396.7 474 1394.4 497.6C1394.6 499 1395.3 500.7 1396.5 501.1 1397.1 501.3 1397.1 501.3 1397.4 500.7 1399.2 501.4 1401 500 1401.1 498L1402.4 480.8 1414.5 494.6 1409.9 545.9C1410 547.3 1411 548.3 1412.2 548.8 1412.8 549 1412.8 549 1412.8 549 1414.9 549 1416.5 548.3 1416.5 546.2L1420.2 501.4 1434.5 518.6 1433.1 537.8C1433 539.9 1434 540.9 1435.2 541.3 1435.2 541.3 1435.9 541.5 1435.9 541.5 1437.9 541.6 1439.1 540 1439.5 538.8L1440.2 525.4 1450.7 538C1451.3 538.2 1451.9 538.4 1452.5 538.6 1453.1 538.8 1454.5 538.7 1455.3 538.3 1456.6 536.7 1457.2 534.9 1455.6 533.6L1445.1 521.1 1458.3 522.3C1460.3 522.4 1461.6 520.8 1462 519.6 1462 517.5 1460.4 516.3 1458.6 515.7L1439.4 514.3 1425 497.6 1469.2 501.1C1471.2 501.1 1473.1 499.7 1472.9 498.3 1472.9 496.3 1472.2 494.7 1470.1 494.6Z" fill="rgba(51, 121, 194, 0.58)"></path><path d="M1127.2 134.8L1126.6 108.4 1131.5 103 1147.3 106.7 1149.6 113.8 1136.9 137.1C1136.8 137.4 1136.8 137.4 1136.7 137.7 1136.6 138.4 1136.8 139.1 1137.6 139.6 1138.6 139.8 1139.2 139.7 1139.8 138.8L1150.8 118.4 1154.2 129.4 1149.4 138.4C1149.4 138.4 1149.3 138.7 1149.3 138.7 1149.2 139.4 1149.3 140.1 1150.2 140.6 1150.8 141.1 1151.8 140.6 1152.4 139.8L1155.7 134 1158.1 142.1C1158.2 142.8 1159.1 143.3 1160.1 143.3S1161.4 141.9 1161.3 140.9L1158.9 133.1 1164.7 136.1C1165.6 136.7 1166.7 136.3 1167.2 135.4 1167.4 134.8 1167.3 133.8 1166.4 133.2L1157.3 128.5 1154.1 117.2 1174.5 128.2C1175.4 128.8 1176.4 128.4 1176.9 127.8 1177.1 126.9 1177 125.9 1176.2 125.3L1152.8 112.9 1150.6 105.5 1161.5 93.9 1169 95.7 1183.1 118.1C1183.6 118.9 1184.5 119.1 1185.3 118.6S1186.3 117.2 1185.8 116.4L1173.4 96.7 1184.9 99.5 1190.1 107.9C1190.6 108.7 1191.5 108.9 1192.6 108.5S1193.6 107.1 1193.1 106.3L1189.3 100.5 1197.7 102.5C1198.6 102.7 1199.4 101.9 1199.7 101 1199.9 100 1199.4 99.3 1198.5 99L1190.1 97.1 1195.8 93.5C1196.9 93.1 1197.1 92.2 1196.4 91.3 1195.9 90.5 1194.9 90.3 1194.2 90.8L1185.7 96 1174.2 93.3 1194.1 81.2C1194.9 80.8 1195.2 79.5 1194.7 78.8S1193.3 77.8 1192.5 78.2L1169.8 92.3 1162.3 90.5 1157.8 75 1163 69.6 1189.5 69C1190.5 68.9 1191 68 1191.2 67.1 1191.1 66.1 1190.3 65.5 1189.3 65.3L1166.1 66.1 1174 57.8 1184.3 57.6C1185.3 57.5 1185.8 56.6 1186 55.7 1185.9 55 1185.1 54.1 1184.1 54.2L1177.5 54.3 1183.2 48.1C1183.7 47.5 1183.6 46.5 1183.1 45.8 1182.2 45.2 1181.2 45.3 1180.8 45.9L1175 52.1 1174.7 45.1C1174.5 44.4 1173.7 43.6 1173 43.7 1172.1 43.5 1171.7 44.1 1171.4 45 1171.4 45 1171.4 45.3 1171.4 45.3L1171.6 55.5 1163.7 63.9 1162.9 40.7C1162.8 39.7 1162.4 38.9 1161.3 39 1160.3 39.1 1159.9 39.6 1159.7 40.3 1159.7 40.6 1159.7 40.6 1159.7 40.6L1160.6 67.4 1155.4 72.8 1139.5 69 1137.5 62 1150 38.3C1150.5 37.7 1150.1 36.7 1149.5 36.2 1148.6 35.7 1147.6 36.1 1147 36.9L1136 57.3 1132.6 46.4 1137.4 37.3C1137.9 36.4 1137.9 35.4 1136.9 35.2 1136.1 34.7 1135 35.1 1134.5 35.6L1131.4 41.8 1129.1 33.7C1128.6 32.9 1127.7 32.4 1126.7 32.5 1126.3 32.7 1125.9 33.3 1125.7 33.9 1125.7 34.2 1125.7 34.2 1125.9 34.6L1128.3 42.7 1122.1 39.6C1121.2 39.1 1120.4 39.5 1120 40.1 1119.9 40.4 1119.9 40.4 1119.8 40.7 1119.7 41.3 1119.9 42 1120.4 42.5L1129.5 47.3 1132.8 58.2 1112.4 47.2C1111.5 47 1110.5 47.1 1110.2 48 1109.9 48.2 1109.9 48.2 1109.8 48.5 1109.6 49.2 1110.1 49.9 1110.7 50.4L1134.3 62.9 1136.3 69.9 1125.3 81.8 1118.1 80.1 1104.1 57.4C1103.6 56.6 1102.4 56.3 1101.6 56.8S1100.5 58.5 1101 59.3L1113.4 79 1102.2 76.3 1096.7 67.8C1096.2 67 1095.3 66.8 1094.5 67.3 1093.7 67.8 1093.5 68.7 1094 69.5L1097.6 75.2 1089.2 73.3C1088.5 73.1 1087.4 73.5 1087.2 74.4 1087 75.4 1087.7 76.5 1088.3 76.7L1096.8 78.7 1091 82.2C1090.6 82.5 1090.2 82.7 1090.1 83 1090 83.6 1090.2 84 1090.5 84.4 1090.9 85.2 1091.9 85.4 1092.6 84.9L1101.4 79.8 1112.6 82.4 1092.7 94.5C1092.3 94.7 1092.2 95 1092.1 95.7 1092 96 1091.9 96.3 1092.2 96.7 1092.7 97.4 1093.9 97.7 1094.7 97.2L1117.3 83.5 1124.5 85.2 1129.1 100.4 1124.1 106.2 1097.4 106.8C1096.7 106.9 1095.9 107.4 1095.7 108 1095.7 108.3 1095.7 108.3 1096 108.4 1095.8 109.3 1096.6 110.2 1097.6 110.1L1120.8 109.3 1112.8 118 1102.6 118.2C1101.9 118.3 1101.4 118.9 1101.3 119.5 1101.3 119.5 1101.2 119.8 1101.2 119.8 1101 120.8 1101.8 121.6 1102.8 121.5L1109.7 121.2 1104 127.4C1103.6 127.6 1103.5 127.9 1103.5 128.3 1103.3 128.9 1103.5 129.6 1103.8 129.6 1104.6 130.5 1105.6 130.4 1106.4 129.9L1112.1 123.7 1112.2 130.3C1112.3 131.3 1113.1 132.2 1114.1 132.1 1114.8 131.9 1115.6 131.1 1115.5 130.4L1115.2 120.2 1123.1 111.8 1123.9 135C1124 136.1 1124.8 136.6 1125.8 136.8 1126.5 136.6 1127.3 135.9 1127.2 134.8ZM1146.3 102.8L1134.1 100 1132.3 99.5 1131.7 97.8 1128.2 86.1 1127.7 84 1129 82.7 1137.4 73.8 1138.7 72.4 1140.5 72.9 1152.7 75.7 1154.5 76.2 1155.1 78 1158.6 89.6 1159.2 91.4 1157.8 93.1 1149.5 101.9 1148.2 103.3 1146.3 102.8Z" fill="rgba(51, 121, 194, 0.58)"></path><path d="M586.5 168.4L635.7 182 644.6 198.4 628 193.8C626.4 192.8 624.8 194.1 623.8 195.8 623.7 197.2 624.7 199.3 626.2 199.4L648.9 206.2 658.1 222.1 639.8 221.6 623.2 204.3C623.2 204.3 622.7 204 622.7 204 621.6 203.4 619.8 203.8 618.6 204.6 617.6 206.2 617.5 207.7 618.9 209.2L630.9 221.5 612.6 221.1 576.7 184.9C576.7 184.9 576.5 184 576.5 184 575.4 183.4 573.6 183.8 572.4 184.6 570.9 185.9 571 188.2 572.7 189.2L603.7 221 581.3 221.1 567.4 206.9C567.4 206.9 567.4 206.9 566.8 206.6 565.7 205.9 564.3 205.8 563.1 206.6 562.1 208.3 561.7 210.2 563 211.8L572.4 221 556 221C554.1 220.6 553.1 222.2 553 223.7 552.5 225.6 553.9 227.2 556.2 227.1L572.2 227.6 562.7 236.1C561.7 237.8 561.3 239.8 562.9 240.7 564.3 242.3 565.7 242.4 567.2 241.1L581.4 227.2 603.5 227.6 571.4 259.1C570.2 259.9 570.3 262.2 571.6 263.8 572.7 264.4 574.7 264.8 576.2 263.5L612.4 227.7 630.7 228.1 618.4 240.1C616.8 241.5 617.3 243.2 618.6 244.7 619.4 246 621.7 245.8 622.9 245.1L639.6 228.2 658.3 228.1 648.8 244.1 626 249.9C624.2 250.3 623.2 252 623.7 253.7 623.6 255.2 625.8 256.5 627.5 256L644.2 251.8 634.7 267.7 585.1 279.9C583.3 280.4 582.3 282 582.8 283.8 583.2 285.5 584.9 286.5 586.6 286.1L630.2 275.4 619.1 294.1 599.8 299.1C598 299.5 597 301.2 597.5 302.9 597.9 304.7 599.6 305.6 601.3 305.2L614.2 302.4 606 316.2C605 317.8 605.5 319.6 607.1 320.5 608.8 321.5 610.5 321.1 611.5 319.4L619.7 305.7 622.8 317.9C623.3 319.7 624.9 320.7 626.7 320.2S629.4 318.1 628.9 316.4L624.2 298 635.7 278.7 646.6 321.7C647.1 323.4 648.7 324.4 650.5 323.9 652.2 323.5 653.2 321.8 652.8 320.1L640.2 271 649.7 255 654 271.7C654.4 273.4 656.1 274.4 657.8 274 659.6 273.5 660.6 271.9 660.1 270.1L654.3 247.3 663.4 231.9 672.1 247.4 665.8 270.5C665.7 272 666.7 274 668.1 274.1 670.1 274.6 671.3 273.8 672.3 272.1L676.9 255.5 685.6 271.1 672 320.3C671.6 322.3 672.3 323.5 674 324.5 676 324.9 677.5 323.6 678.1 322.5L690.4 279.2 701.1 298.9 696 317.5C695 319.1 696.4 320.6 698 321.6 699.4 321.7 701.5 320.7 701.9 318.8L705.4 306.7 713.6 320.5C714 322.2 716 322.6 718.1 321.6 719.3 320.9 719.7 318.9 719 317.7L711.1 303.3 723.7 307.1C725.7 307.5 727.2 306.2 727.3 304.8 728.3 303.1 727.5 301.9 726.4 301.3 725.9 301 725.9 301 725.3 300.6L706.8 295.6 696.1 275.9 738.9 287.8C740.5 288.8 742.1 287.5 743.1 285.8 743.2 284.4 742.4 283.2 741.3 282.6 740.7 282.2 740.7 282.2 740.7 282.2L691.3 267.8 682.6 252.2 699.2 256.9C701.2 257.3 702.4 256.5 703.4 254.9 703.5 253.4 703 251.7 701.9 251 701.4 250.7 701.4 250.7 700.8 250.4L677.8 244.1 669.1 228.6 686.9 228.7 703.8 245.4C705.1 247 707.4 246.8 708.6 246.1 709.6 244.4 710 242.4 708.4 241.5L696.3 229.1 714.5 228.7 750.5 265.7C751.3 266.9 753.6 266.8 754.8 266 755.8 264.4 756.2 262.4 754.9 260.9L723.9 229.1 746 229.5 759.3 243.4C760.6 244.9 762.9 244.8 763.9 243.2 765.1 242.4 765.5 240.4 764.2 238.9L754.8 229.6 771.2 229.6C772.6 229.7 774.2 228.4 774.6 226.4 774.4 225.5 773.6 224.3 772.5 223.7 772.5 223.7 771.9 223.4 771.4 223L755 223 764.3 213.6C765.5 212.8 765.4 210.5 764.6 209.3 764.1 209 764.1 209 764.1 209 762.4 208 760.7 208.5 760 209.6L746.1 222.9 723.8 223 755.9 191.5C756.8 189.8 756.9 188.4 755.6 186.9 755.6 186.9 755.1 186.6 755.1 186.6 754 185.9 752.5 185.8 751 187.1L714.3 222.7 696.5 222.5 708.9 210.5C709.9 208.8 710.3 206.9 708.6 205.9 709 205.3 708.4 205 708.4 205 707.3 204.4 705.6 204.8 704.3 205.6L687.6 222.5 669.3 222 678.5 206.6 701.3 200.8C703 200.3 704.3 198.1 703.9 196.4 703.1 195.2 701.4 194.2 700 194.1L683 198.9 692.5 182.9 741.6 170.4C743.4 169.9 744.3 168.3 743.9 166.5 743.4 164.8 741.8 163.8 740 164.2L697.1 175.2 708.5 155.9 726.9 151.2C728.7 150.8 729.6 149.1 729.2 147.4S727.1 144.7 725.3 145.1L713.1 148.2 721.2 134.5C722.2 132.8 721.8 131.1 720.1 130.1 718.5 129.1 716.7 129.6 715.7 131.2L707.6 145 703.9 132.4C703.7 131.5 703.4 130.6 702.9 130.3 702.3 130 700.9 129.9 700 130.1 698.3 130.5 697.3 132.2 697.7 133.9L703 152.7 691.6 171.9 680 128.6C679.8 127.8 679.6 126.9 679 126.6 678.5 126.2 677.1 126.1 676.2 126.4 674.4 126.8 673.5 128.5 673.9 130.2L687 179.7 677.5 195.6 673.6 178.4C673.4 177.5 672.3 176.9 671.7 176.5 671.2 176.2 670.6 175.9 669.7 176.1 668 176.6 666.7 178.8 667.5 180L672.9 203.3 663.8 218.7 654.6 202.9 661.4 180.1C661.5 178.7 661.1 176.9 660 176.3 659.4 175.9 659.4 175.9 659.1 176.5 657.4 175.5 655.4 176.5 654.9 178.5L650.3 195.1 641.1 179.2 655.6 129.8C655.7 128.3 654.9 127.1 653.8 126.5 653.2 126.1 653.2 126.1 653.2 126.1 651.3 125.7 649.5 126.2 649.1 128.1L636.8 171.4 626.2 151.7 631.2 133.2C631.6 131.2 630.9 130 629.8 129.3 629.8 129.3 629.2 129 629.2 129 627.2 128.6 625.7 129.9 625.1 131L621.8 144 614 129.6C613.4 129.3 612.9 129 612.3 128.7 611.8 128.3 610.3 128.2 609.5 128.4 607.9 129.8 607 131.4 608.3 133L616.1 147.3 603.5 143.5C601.5 143.1 600 144.4 599.3 145.5 598.9 147.5 600.2 149 601.9 150L620.5 155.1 631.4 174.2 588.7 162.2C586.7 161.8 584.6 162.8 584.5 164.2 584.1 166.2 584.5 168 586.5 168.4Z" fill="rgba(51, 121, 194, 0.58)"></path><path d="M697.9 443.6L668.6 458.9 659.8 456.4 655.3 436.5 662 430.1 695.1 431.5C695.5 431.4 695.5 431.4 695.9 431.3 696.7 431.1 697.4 430.6 697.5 429.3 697.3 428.1 696.7 427.5 695.4 427.3L666.4 426.2 676.9 416.4 689.7 416.7C689.7 416.7 690.1 416.7 690.1 416.7 690.9 416.5 691.6 415.9 691.7 414.6 691.9 413.8 690.9 412.8 689.6 412.7L681.3 412.1 689.1 405C689.8 404.4 689.9 403.2 689.2 402.1S687 401.4 685.9 402L678.5 409 678.7 400.8C678.8 399.5 677.8 398.6 676.5 398.4 675.7 398.6 674.6 399.3 674.5 400.5L674.2 413.3 663.3 423.2 664.5 394.2C664.6 392.9 663.5 392 662.7 391.7 661.5 392 660.4 392.7 660.3 393.9L659.2 427 652.1 433.6 633.1 427.6 631 418.3 648.3 390.1C648.9 389.1 648.7 388 647.7 387.4S645.6 387 645 388L629.7 412.8 626.4 398.4 633 387.9C633.6 386.9 633.4 385.7 632.3 384.7S630.2 384.4 629.6 385.4L625.2 392.9 622.8 382.4C622.5 381.2 621.2 380.7 620 381 618.8 381.3 618.2 382.2 618.5 383.4L620.9 393.9 613.7 389.4C612.7 388.4 611.5 388.7 611 390 610.4 391 610.6 392.2 611.6 392.8L622.1 399.4 625.4 413.8 600.9 398.1C600 397.5 598.4 397.8 597.8 398.8S597.5 400.9 598.4 401.5L626.7 419.3 628.8 428.6 613.9 442.3 605 439.4 589.7 410.1C589.1 409 587.8 408.9 586.6 409.1 585.5 409.8 585.4 411.1 585.7 412.2L599.3 437.8 585.7 433.6 579.8 422.2C579.1 421.1 577.8 421 576.7 421.3 576 421.8 575.5 423.2 576.1 424.3L579.9 431.6 569.7 428.6C568.9 428.4 567.8 429.1 567.2 430 567.1 431.3 567.7 432.3 568.6 432.6L578.7 435.6 571.1 439.8C570.4 440.4 569.9 441.7 570.4 442.4 570.7 443.6 571.6 443.8 572.7 443.5 572.7 443.5 573.1 443.4 573.1 443.4L584.5 437.5 598.2 441.8 572.6 455.4C571.5 456.1 570.9 457.1 571.6 458.1 572.2 459.2 573.1 459.4 573.9 459.3 574.3 459.2 574.3 459.2 574.3 459.2L603.9 443.4 612.8 446.3 617.3 466.1 610.5 472.2 577 471.3C576.2 471 575.2 472.1 575 473 574.8 474.2 575.9 475.2 577.2 475.3L606.1 476.5 595.7 486.3 582.9 485.9C581.6 485.8 580.5 486.5 580.8 487.6 580.7 488.9 581.7 489.9 582.6 490.1L591.2 490.2 583.4 497.3C582.8 498.2 582.7 499.5 583.3 500.6 583.8 500.9 584.7 501.1 585.5 500.9 585.9 500.8 585.9 500.8 586.2 500.3L594 493.2 593.9 501.9C593.8 503.1 594.7 503.7 595.6 503.9 596 503.8 596 503.8 596.4 503.8 597.2 503.6 597.8 503 598.1 502.1L598.4 489.3 608.9 479.6 607.7 508.5C608 509.7 608.7 510.8 609.8 510.5 610.3 510.8 610.3 510.8 610.7 510.7 611.5 510.6 612.1 509.6 612.3 508.7L613.2 475.3 620.1 469.2 639.5 475 641.5 484 623.8 512.3C623.2 513.2 623.5 514.8 624.5 515.4S627 515.6 627.6 514.7L642.8 489.8 646.1 503.9 639.5 514.8C638.9 515.8 639.2 516.9 640.2 517.5 641.1 518.1 642.3 517.9 642.9 516.9L647.4 509.7 649.8 520.3C650 521 651 522 652.2 521.8 653.4 521.5 654.3 520.1 654.1 519.3L651.7 508.7 658.9 513.3C659.3 513.6 659.8 513.9 660.2 513.8 661 513.6 661.3 513.1 661.6 512.6 662.2 511.7 661.9 510.5 661 509.9L650.3 502.9 647.1 488.9 671.7 504.6C672.1 504.9 672.5 504.8 673.3 504.6 673.7 504.5 674.1 504.4 674.4 504 675 503 674.6 501.4 673.7 500.8L645.8 483 643.7 474 658.3 460.5 667.4 462.9 682.9 492.6C683.4 493.3 684.4 493.9 685.2 493.7 685.6 493.6 685.6 493.6 685.5 493.2 686.6 492.9 687.2 491.6 686.5 490.5L672.8 464.9 686.9 469.1 692.8 480.5C693.4 481.1 694.2 481.4 695 481.2 695 481.2 695.4 481.1 695.4 481.1 696.6 480.8 697.1 479.5 696.4 478.4L692.2 470.7 702.4 473.8C702.8 474.1 703.2 474 703.6 473.9 704.4 473.7 705.1 473.1 705 472.7 705.5 471.4 704.8 470.3 703.9 469.7L693.8 466.7 701.1 463C702.2 462.3 702.7 461 702.1 459.9 701.5 459.2 700.1 458.7 699.4 459.2L688.1 465.1 674.4 460.9 700 447.2C701.1 446.6 701.2 445.3 700.9 444.1 700.3 443.4 699 442.9 697.9 443.6ZM651.5 439.8L655 455.1 655.5 457.4 653.8 459 642.7 469.4 640.6 471.1 638.4 470.3 623.8 465.9 621.6 465.2 621.1 462.8 617.6 447.6 617.1 445.3 618.7 443.7 629.9 433.3 631.6 431.7 634.2 432.3 648.8 436.8 651 437.5 651.5 439.8Z" fill="rgba(51, 121, 194, 0.58)"></path><path d="M129.2 180.3L121.7 173.6 128.1 171.3C128.8 171.1 129.3 170.2 129.1 169.2 128.6 168.5 127.8 168 127.1 168.2L118.7 171 111.8 164.8 128.9 159.1C130 158.6 130.5 157.7 130 157 129.8 156 129 155.5 127.9 155.9L109 162.2 102.6 156.7 106.4 137.6 113.5 135.1 129.2 149.3C129.5 149.4 129.8 149.5 130.2 149.5 130.5 149.6 131.2 149.4 131.5 149.1 132.4 148.3 132.2 147.3 131.3 146.8L117 133.8 125.7 131 133.2 137.4C133.2 137.7 133.5 137.8 133.8 137.8 134.4 138 135.1 137.8 135.6 137.2 136 136.7 135.9 135.7 135.4 134.9L129.2 129.7 140.1 126C140.8 125.9 141.3 125 141.1 124 140.6 123.2 139.8 122.7 139.1 122.9L128.9 126.4 130.2 119.8C130.4 118.9 129.6 118.1 129 118 128 117.8 127 118.2 126.8 119.1L125.1 127.6 116.4 130.4 119.9 112.9C120.1 111.9 119.6 111.2 118.6 111 117.7 110.8 116.9 111.3 116.7 112.2L112.8 131.7 105.4 134.4 90.8 121.4 92.2 114.2 111.5 107.6C112.5 107.5 113 106.3 112.5 105.5 112.4 104.5 111.5 104.3 110.5 104.5L93 110.4 94.8 101.3 103.5 98.5C104.2 98.3 104.8 97.1 104.6 96.4S103.2 95.2 102.2 95.3L95.5 97.5 97.7 86.6C97.9 85.6 97.1 84.8 96.2 84.6 95.5 84.5 94.5 84.9 94.3 85.9L92.1 96.9 86.5 92.1C85.9 91.7 85 91.5 84.2 92.3 83.7 92.9 83.8 94.2 84.4 94.7L91.3 100.6 89.5 109.7 75.6 97.5C74.8 97 73.8 96.8 73 97.6 72.6 98.2 72.6 99.5 73.2 99.9L88.7 113.5 87.3 120.7 68.7 127.1 63 121.7 66.8 102.2C67 101.3 66.5 100.5 65.6 100.4 64.7 100.2 63.6 100.6 63.4 101.5L59.9 119.1 52.9 113.2 54.6 104.7C54.8 103.7 54.3 103 53.4 102.8 52.4 102.6 51.7 103.1 51.5 104.1L50.2 110.6 42.1 103.5C41.6 103 40.2 103.1 39.8 103.7 39.3 104.6 39.1 105.5 40 106L48.3 113.5 40.9 116C40.2 116.5 39.7 117.4 39.9 118 40 118.7 40.6 119.2 41.2 119.3 41.2 119.3 41.6 119.4 41.9 119.1L51.3 116.1 58.3 122.1 40 128.5C39 128.7 38.5 129.5 39 130.6 39.2 131 39.5 131.3 40.1 131.5 40.4 131.5 40.7 131.6 41 131.7L61.1 124.6 66.6 129.6 62.8 148.7 54.7 151.4 39.7 138.3C38.9 137.4 37.9 137.6 37.4 138.4 36.6 138.9 36.8 139.9 37.6 140.8L51.2 152.6 42.4 155.8 35.8 149.9C35.2 149.4 34.2 149.5 33.4 150 32.9 150.9 32.8 151.9 33.6 152.4L38.6 157 29.1 160.3C28.1 160.4 27.9 161.3 28 162.3 28.3 162.7 28.9 163.2 29.5 163.3 29.5 163.3 29.8 163.4 30.1 163.4L40.3 159.9 38.7 167.7C38.6 168.4 39 169.4 40 169.6 40.9 169.8 41.7 169 41.8 168.4L43.8 158.6 52.6 155.5 48.7 174.7C48.6 175.6 49.4 176.4 50.3 176.6S52 176.3 52.2 175.3L56.4 154.3 63.8 151.9 78.4 164.9 76.8 173.1 57.2 179.6C56.5 180.1 56 181 56.1 182 56.3 182.4 56.9 182.8 57.5 182.9 57.8 183 58.2 183.1 58.5 182.8L76 176.9 74.2 186 65.4 189.1C64.7 189.3 64.2 190.2 64.4 191.2 64.9 191.9 65.8 192.4 66.4 192.2L73.5 189.7 71.5 199.8C71.3 200.4 72.1 201.5 72.7 201.6 73.7 201.8 74.8 201.1 74.9 200.5L76.9 190.4 82.1 195.4C82.4 195.4 82.8 195.5 83.1 195.6 83.7 195.7 84.4 195.5 84.8 195.3 85.3 194.4 85.1 193.4 84.6 192.6L77.7 186.7 79.5 177.6 93.4 189.8C94.2 190.6 95.2 190.5 95.6 189.9 96.4 189.1 96.3 188.1 95.8 187.3L80.3 173.8 81.9 165.6 100.5 159.2 106.3 164.3 102.1 185.3C101.9 186.3 102.4 187 103.3 187.2 104.3 187.4 105 186.9 105.2 186L109.1 166.8 116 173.1 114 182.8C113.9 183.5 114.6 184.6 115.6 184.8 116.5 185 117.3 184.2 117.5 183.5L119 175.7 127.1 182.8C127.4 182.9 127.4 182.9 127.7 183 128.3 183.1 129 182.9 129.4 182.7 129.9 181.8 129.8 180.8 129.2 180.3ZM82.6 161.9L80.6 162.4 79.2 161.2 67.3 150.6 65.9 149.4 66.3 147.5 69.3 132.1 69.7 130.2 71.5 129.6 86.5 124.5 88.3 123.8 90 125.2 101.6 135.6 103.3 137 102.9 138.8 99.8 154.2 99.5 156.1 97.4 156.7 82.6 161.9Z" fill="rgba(51, 121, 194, 0.58)"></path><path d="M906.4 71.7L931.4 66.6 939.1 71.9 930.7 73.6C929.7 73.6 929.3 74.5 929.3 75.5 929.5 76.1 930.5 76.8 931.1 76.6L942.8 74.4 950.5 79.4 942.2 83.4 930.9 79.4C930.9 79.4 930.6 79.4 930.6 79.4 930 79.4 929.3 80 928.9 80.6 928.9 81.5 929.2 82.2 930.1 82.6L938.2 85.4 930 89.3 905.8 81.3C905.8 81.3 905.5 81 905.5 81 904.9 80.9 904.2 81.5 903.8 82.2 903.4 83.1 904 84.1 905 84.2L926 91.3 916 96.4 906.6 93.2C906.6 93.2 906.6 93.2 906.3 93.2 905.7 93.2 905 93.5 904.6 94.1 904.6 95 904.8 96 905.8 96.4L912.1 98.4 904.8 102.1C903.8 102.4 903.7 103.3 904 104 904.3 104.9 905.2 105.3 906.2 104.8L913.5 101.4 911.2 107.3C911.1 108.3 911.4 109.3 912.3 109.3 913.3 109.7 913.9 109.4 914.3 108.5L917.5 99.1 927.4 94.3 920.2 115.6C919.9 116.2 920.5 117.2 921.4 117.6 922 117.6 923 117.4 923.4 116.5L931.4 92.3 939.7 88.3 936.9 96.5C936.5 97.4 937.1 98.1 938 98.5 938.7 98.8 939.6 98.3 940 97.7L943.6 86.3 951.9 82.1 951.3 91.3 942.5 99.1C941.8 99.7 941.7 100.7 942.3 101.3 942.6 102 943.9 102.1 944.6 101.5L951 95.8 950.4 105.1 931.1 121.8C930.4 122.4 930.3 123.3 930.9 124 931.5 124.7 932.5 124.7 933.2 124.1L950.1 109.5 949.4 120.4 942 127C941.3 127.6 941.2 128.5 941.8 129.2 942.4 129.9 943.4 129.9 944 129.3L949.1 125.2 948.6 133.2C948.5 134.1 949.1 134.8 950.1 134.9 951.1 134.9 951.7 134.3 951.8 133.4L952.3 125.4 956.5 130.2C957.1 130.8 958.1 130.9 958.7 130.3S959.5 128.7 958.9 128.1L952.6 120.9 953.3 109.7 968 126.4C968.6 127.1 969.5 127.1 970.2 126.6 970.9 126 970.9 125 970.3 124.3L953.6 105.3 954.2 96 959.9 102.5C960.5 103.2 961.5 103.2 962.1 102.6 962.8 102 962.9 101.1 962.3 100.4L954.5 91.5 955.1 82.6 962.5 87.6 964.9 99.3C965.2 99.9 966.1 100.6 966.8 100.4 967.8 100.1 968.1 99.5 968.2 98.5L966.5 90.1 973.9 95 979 120.1C979.2 121 979.8 121.4 980.8 121.5 981.8 121.2 982.2 120.3 982.2 119.6L977.9 97.5 987.1 103.9 989 113.3C989 114.3 989.9 114.7 990.8 114.7 991.5 114.5 992.2 113.6 992 112.6L990.7 106.4 997.5 110.7C998.1 111.4 999.1 111.1 999.8 110.2 1000.2 109.6 999.9 108.6 999.3 108.2L992.5 103.6 999 102.5C1000 102.2 1000.4 101.3 1000.1 100.6 1000.2 99.6 999.6 99.3 998.9 99.2 998.6 99.2 998.6 99.2 998.3 99.2L988.8 101.1 979.6 94.8 1001.4 90.4C1002.4 90.5 1002.7 89.5 1002.8 88.6 1002.5 87.9 1001.9 87.6 1001.3 87.5 1001 87.5 1001 87.5 1001 87.5L975.6 92.3 968.3 87.3 976.7 85.6C977.7 85.4 978 84.7 978.1 83.8 977.8 83.1 977.2 82.4 976.6 82.4 976.3 82.4 976.3 82.4 976 82.4L964.3 84.8 956.9 79.8 964.8 75.9 976.1 79.5C977.1 79.9 978.1 79.3 978.4 78.7 978.5 77.7 978.2 76.7 977.3 76.7L969.1 73.9 977.1 69.6 1001.6 77.9C1002.2 78.3 1003.2 77.7 1003.6 77.1 1003.6 76.1 1003.4 75.2 1002.4 74.8L981.4 67.6 991.3 62.8 1000.4 66C1001.4 66.4 1002.4 65.8 1002.4 64.8 1002.8 64.2 1002.5 63.2 1001.6 62.9L995.3 60.8 1002.6 57.1C1003.3 56.9 1003.7 55.9 1003.4 55 1003.1 54.6 1002.5 54.3 1001.8 54.2 1001.8 54.2 1001.5 54.2 1001.2 54.2L993.9 57.9 995.9 51.6C996.3 51 995.7 50 995.1 49.6 994.8 49.6 994.8 49.6 994.8 49.6 993.8 49.5 993.1 50.1 993.1 50.8L989.9 59.9 980 65 987.1 43.6C987.2 42.7 986.9 42 986 41.6 986 41.6 985.7 41.6 985.7 41.6 985 41.6 984.4 41.9 984 42.8L975.7 66.9 967.7 70.9 970.5 62.8C970.6 61.8 970.3 60.8 969.3 60.8 969.4 60.4 969 60.4 969 60.4 968.4 60.4 967.7 61 967.4 61.6L963.7 72.9 955.5 76.9 956.1 67.9 964.9 60.1C965.6 59.6 965.7 58.3 965.1 57.6 964.4 57.2 963.5 57.2 962.8 57.4L956.3 63.4 956.9 54.2 976 37.5C976.7 36.9 976.7 35.9 976.1 35.2 975.5 34.5 974.6 34.5 973.9 35.1L957.2 49.7 958 38.5 965.1 32.3C965.8 31.7 965.8 30.7 965.3 30S963.7 29.3 963 29.9L958.3 34.1 958.8 26.1C958.8 25.1 958.2 24.4 957.3 24.4 956.3 24.3 955.6 24.9 955.6 25.9L955.1 33.9 950.6 29.1C950.3 28.7 950 28.4 949.6 28.4 949.3 28.4 948.7 28.6 948.3 28.9 947.6 29.5 947.6 30.5 948.2 31.2L954.8 38.3 954 49.5 939.1 32.8C938.8 32.5 938.5 32.1 938.2 32.1 937.9 32.1 937.2 32.4 936.9 32.7 936.2 33.3 936.1 34.2 936.7 34.9L953.8 54 953.2 63.2 947.5 56.5C947.2 56.1 946.6 56.1 946.2 56 945.9 56 945.6 56 945.3 56.3 944.6 56.9 944.5 58.2 945.1 58.5L952.9 67.7 952.3 76.6 944.6 71.7 942.5 60C942.2 59.3 941.6 58.6 940.9 58.6 940.6 58.6 940.6 58.6 940.6 58.9 939.6 58.8 938.9 59.7 939.2 60.7L940.9 69.2 933.2 64.2 928.4 38.9C928.2 38.2 927.5 37.8 926.9 37.8 926.6 37.8 926.6 37.8 926.6 37.8 925.6 38 924.9 38.6 925.2 39.6L929.5 61.7 920.3 55.3 918.4 45.9C918.1 44.9 917.5 44.6 916.8 44.5 916.8 44.5 916.5 44.5 916.5 44.5 915.6 44.8 915.2 45.7 915.1 46.3L916.6 52.8 909.9 48.2C909.6 48.2 909.2 48.2 908.9 48.2 908.6 48.2 907.9 48.4 907.6 48.7 907.2 49.7 907.2 50.6 908.1 51L914.8 55.6 908.4 56.8C907.4 57.1 907 58 907 58.6 907.2 59.6 908.1 60 909.1 60L918.5 58.1 927.8 64.1 906 68.5C905 68.8 904.3 69.7 904.6 70.3 904.8 71.3 905.4 72 906.4 71.7Z" fill="rgba(51, 121, 194, 0.58)"></path><path d="M1328.3 183.8L1335.2 171.6 1339.8 178.7C1340.2 179.5 1341.4 179.9 1342.6 179.4 1343.4 178.6 1343.8 177.4 1342.9 176.6L1337.5 167.6 1342.5 157.8 1353.8 176.8C1354.6 177.5 1355.8 177.9 1356.6 177.5 1357.7 176.6 1358.1 175.4 1357.3 174.7L1344.8 153.8 1352.8 139.2 1360.8 156.6 1368 138.8 1376.7 153 1365.3 174.5C1364.9 174.5 1364.9 174.9 1364.9 175.3 1364.9 176.1 1365.4 176.9 1366.2 177.2 1367 177.6 1368.2 177.2 1368.9 176.4L1379.3 156.9 1384.7 166.4 1379.7 175.7C1379.3 176.1 1379.4 176.5 1379.4 176.9 1379.4 177.3 1379.8 178.1 1380.6 178.5 1381.4 178.8 1382.6 178.4 1383 177.6L1387.2 170.3 1394.7 182.1C1395.1 183.3 1396.3 183.3 1397.5 182.8 1398.3 182.4 1398.7 181.2 1397.8 180L1390.7 168.2 1399.1 168C1400.3 168 1401.1 166.7 1401.1 165.9 1401.1 164.7 1400.2 164 1399 164L1388.2 164.3 1382.8 154.8 1404.4 154.2C1405.6 154.2 1406.4 153.4 1406.3 152.2 1406.3 151.4 1405.5 150.2 1404.3 150.2L1380.3 150.9 1371.5 136.7 1390.4 138.2 1378.8 123.3 1395.6 122.9 1408.1 143.3C1408.9 144.5 1410.1 144.5 1410.9 144.1 1411.7 143.7 1412.1 142.4 1411.7 141.3L1400 122.7 1410.8 122.5 1416.6 131.5C1417 132.7 1418.3 133.1 1419.4 132.3 1420.2 131.8 1420.6 130.6 1419.8 129.4L1415.6 122.3 1429.6 122C1430.8 122 1431.6 121.1 1431.5 119.9S1430.7 118 1429.5 118L1415.5 118.3 1419.3 111C1420.1 109.8 1419.6 108.6 1418.8 108.3 1417.6 107.5 1416.4 107.9 1416 109.1L1410.7 118.5 1399.9 118.7 1410.6 99.7C1411 98.5 1410.5 97.3 1409.7 96.9 1408.5 96.1 1407.3 96.6 1406.9 97.8L1395.5 118.9 1378.7 119.3 1389.5 103.8 1370.7 106.3 1378.8 91.7 1402.8 91.1C1404 91 1404.7 89.8 1404.7 89 1404.7 87.8 1403.9 87 1402.7 87.1L1380.7 87.6 1386 77.9 1396.8 77.6C1398 77.6 1398.8 76.8 1398.8 75.6 1398.7 74.8 1397.9 73.6 1396.7 73.6L1388.3 73.8 1394.8 61.7C1395.6 60.4 1395.2 59.3 1393.9 58.9 1393.1 58.5 1391.9 58.5 1391.6 59.7L1384.7 71.9 1380.1 64.8C1379.7 64.1 1378.5 63.7 1377.7 64.1 1376.9 64.5 1376.5 65.3 1376.5 65.7 1376.5 66.1 1376.5 66.5 1376.9 66.9L1382.4 76 1377.4 85.7 1366.1 66.8C1365.3 66 1364.1 65.6 1363.3 66.1 1362.5 66.5 1362.1 67.3 1362.2 68.1 1362.2 68.5 1362.2 68.5 1362.6 68.9L1375.1 89.8 1367.1 104.4 1359.1 87 1351.9 104.8 1343.1 90.6 1354.6 69.1C1355 68.3 1354.9 67.1 1353.7 66.3 1352.9 65.9 1351.7 66.4 1350.9 67.2L1340.6 86.7 1335.2 77.2 1340.2 67.9C1340.9 67 1340.5 65.9 1339.3 65.1 1338.5 64.7 1337.3 65.1 1336.5 66L1332.7 73.3 1325.2 61.4C1324.8 60.3 1323.6 60.3 1322.4 60.7 1322 61.1 1321.6 61.9 1321.6 62.3 1321.6 62.7 1321.6 63.1 1322 63.5L1329.1 75.3 1320.7 75.6C1319.5 75.6 1318.8 76.8 1318.8 77.6L1318.8 77.6C1318.8 78.8 1319.6 79.6 1320.8 79.6L1331.6 79.3 1337.1 88.8 1315.5 89.3C1314.3 89.3 1313.5 90.2 1313.5 91.4S1314.4 93.3 1315.6 93.3L1339.6 92.7 1348.4 106.9 1329.5 105.4 1341.1 120.3 1324.3 120.7 1311.8 100.2C1310.9 99 1309.7 99.1 1309 99.5 1308.2 99.9 1307.8 101.1 1308.2 102.3L1319.5 120.8 1309.1 121.1 1303.3 112C1302.8 110.8 1301.6 110.5 1300.5 111.3 1299.7 111.7 1299.3 112.9 1299.7 114.1L1304.3 121.2 1290.3 121.6C1289.1 121.6 1288.3 122.4 1288.4 123.6S1289.2 125.6 1290.4 125.6L1304.4 125.2 1300.6 132.5C1300.2 132.9 1300.2 133.3 1300.2 133.7 1300.2 134.5 1300.7 134.9 1301.1 135.3 1302.3 136.1 1303.5 135.6 1303.8 134.4L1309.2 125.1 1320 124.8 1309.3 143.9C1309.3 144.3 1309.3 144.7 1309.3 145.1 1309.3 145.9 1309.8 146.3 1310.2 146.7 1311.4 147.4 1312.6 147 1312.9 145.8L1324.4 124.7 1341.2 124.3 1330.4 139.7 1349.1 137.3 1341.1 151.9 1317.1 152.5C1315.9 152.5 1315.1 153.7 1315.2 154.5 1315.2 155.7 1316 156.5 1317.2 156.5L1338.8 155.9 1333.9 165.7 1323.1 165.9C1321.9 166 1321.1 166.8 1321.1 168S1322 170 1323.2 169.9L1331.6 169.7 1325.1 181.9C1324.7 182.3 1324.7 182.7 1324.7 183.1 1324.7 183.5 1325.1 184.3 1325.9 184.7 1326.8 185 1328 185 1328.3 183.8ZM1338.7 134.7L1347.5 122.1 1338 109.9 1353.7 111.1 1359.3 97 1366.1 110.8 1381.2 108.8 1372.3 121.5 1381.9 133.6 1366.6 132.4 1360.6 146.6 1354.2 132.7 1338.7 134.7Z" fill="rgba(51, 121, 194, 0.58)"></path></g><defs><mask id="SvgjsMask1008"><rect width="1440" height="560" fill="#ffffff"></rect></mask><filter id="SvgjsFilter1009"><feGaussianBlur stdDeviation="1"></feGaussianBlur></filter></defs></svg>